<?xml version="1.0" standalone="no"?><!DOCTYPE svg PUBLIC "-//W3C//DTD SVG 1.1//EN" "http://www.w3.org/Graphics/SVG/1.1/DTD/svg11.dtd"><svg t="1500705902241" class="icon" style="" viewBox="0 0 1024 1024" version="1.1" xmlns="http://www.w3.org/2000/svg" p-id="6270" xmlns:xlink="http://www.w3.org/1999/xlink" width="200" height="200"><defs><style type="text/css"></style></defs><path d="M148.367631 453.078029l-55.727209 0c-15.390525 0-27.868721 12.927427-27.868721 28.877701l0 57.753355c0 15.950274 12.479219 28.877701 27.868721 28.877701l55.727209 0c15.390525 0 27.857465-12.927427 27.857465-28.877701l0-57.753355C176.224072 466.005456 163.758156 453.078029 148.367631 453.078029zM928.548556 481.95573 343.415932 481.95573c-15.390525 0-27.869744 12.926404-27.869744 28.877701 0 15.94925 12.479219 28.876678 27.869744 28.876678l585.132624 0c15.390525 0 27.869744-12.927427 27.869744-28.876678C956.419324 494.882134 943.939081 481.95573 928.548556 481.95573zM148.367631 684.108846l-55.727209 0c-15.390525 0-27.868721 12.927427-27.868721 28.876678l0 57.754379c0 15.950274 12.479219 28.877701 27.868721 28.877701l55.727209 0c15.390525 0 27.857465-12.927427 27.857465-28.877701l0-57.754379C176.224072 697.03525 163.758156 684.108846 148.367631 684.108846zM928.548556 712.984501 343.415932 712.984501c-15.390525 0-27.869744 12.927427-27.869744 28.878724 0 15.94925 12.479219 28.876678 27.869744 28.876678l585.132624 0c15.390525 0 27.869744-12.927427 27.869744-28.876678C956.419324 725.911928 943.939081 712.984501 928.548556 712.984501zM148.367631 222.048235l-55.727209 0c-15.390525 0-27.868721 12.927427-27.868721 28.877701l0 57.754379c0 15.950274 12.479219 28.876678 27.868721 28.876678l55.727209 0c15.390525 0 27.857465-12.926404 27.857465-28.876678l0-57.754379C176.224072 234.975663 163.758156 222.048235 148.367631 222.048235zM343.415932 308.680315l585.132624 0c15.390525 0 27.869744-12.926404 27.869744-28.877701s-12.479219-28.876678-27.869744-28.876678L343.415932 250.925936c-15.390525 0-27.869744 12.926404-27.869744 28.876678S328.025407 308.680315 343.415932 308.680315z" p-id="6271" fill="#5764c6"></path></svg>