<?xml version="1.0" standalone="no"?><!DOCTYPE svg PUBLIC "-//W3C//DTD SVG 1.1//EN" "http://www.w3.org/Graphics/SVG/1.1/DTD/svg11.dtd"><svg t="1508594620310" class="icon" style="" viewBox="0 0 1024 1024" version="1.1" xmlns="http://www.w3.org/2000/svg" p-id="4095" xmlns:xlink="http://www.w3.org/1999/xlink" width="200" height="200"><defs><style type="text/css"></style></defs><path d="M334.379 216.345l290.228 290.201-286.473 286.473c-11.658 10.039-19.061 24.891-19.061 41.479 0 30.203 24.472 54.677 54.676 54.677 14.704 0 27.997-5.794 37.821-15.218l0.144 0.142 328.042-328.075c10.314-9.95 16.731-23.895 16.731-39.344v-0.133-0.124c0-15.467-6.416-29.403-16.732-39.352l0.018-0.019L411.698 139.01c-9.842-9.468-23.21-15.307-37.947-15.307-30.203 0-54.676 24.473-54.676 54.677-0.001 14.737 5.838 28.103 15.306 37.965z" fill="#5764c6" p-id="4096"></path></svg>