<?xml version="1.0" standalone="no"?><!DOCTYPE svg PUBLIC "-//W3C//DTD SVG 1.1//EN" "http://www.w3.org/Graphics/SVG/1.1/DTD/svg11.dtd"><svg class="icon" width="200px" height="200.00px" viewBox="0 0 1024 1024" version="1.1" xmlns="http://www.w3.org/2000/svg"><path fill="#5764c6" d="M889.6 921.6V96c0-17.673-14.327-32-32-32-17.673 0-32 14.327-32 32v825.6c0 17.673 14.327 32 32 32 17.673 0 32-14.327 32-32zM243.572 880.205l404.352-331.09c27.383-22.42 27.435-58.886 0-81.35l-404.352-331.09c-27.382-22.42-49.676-12.003-49.676 23.366V856.84c0 35.646 22.24 45.83 49.676 23.365z m40.546 49.518c-69.12 56.597-154.222 16.897-154.222-72.883v-696.8c0-89.481 85.14-129.447 154.222-72.883l404.352 331.09c58.7 48.064 58.662 132.353 0 180.386l-404.352 331.09z"  /></svg>