<?xml version="1.0" standalone="no"?><!DOCTYPE svg PUBLIC "-//W3C//DTD SVG 1.1//EN" "http://www.w3.org/Graphics/SVG/1.1/DTD/svg11.dtd"><svg t="1509366227238" class="icon" style="" viewBox="0 0 1024 1024" version="1.1" xmlns="http://www.w3.org/2000/svg" p-id="3049" xmlns:xlink="http://www.w3.org/1999/xlink" width="200" height="200"><defs><style type="text/css"></style></defs><path d="M81.92 552.96a245.76 245.76 0 0 1 245.76-245.76h122.88v-40.96h-122.88a286.72 286.72 0 1 0 0 573.44h61.44v-40.96h-61.44A245.76 245.76 0 0 1 81.92 552.96zM614.4 266.24v40.96a245.76 245.76 0 0 1 20.48 490.496v40.96A286.72 286.72 0 0 0 614.4 266.24zM430.08 798.72h163.84v40.96h-163.84zM512 266.24h61.44v40.96h-61.44z" p-id="3050" fill="#5755d9"></path><path d="M491.52 593.92h40.96v245.76h-40.96zM450.56 593.92h40.96v40.96h-40.96zM433.9712 301.2608l-86.8352-86.8352a20.48 20.48 0 0 1 28.8768-28.8768l86.8352 86.8352a20.48 20.48 0 0 1-28.8768 28.8768z" p-id="3051" fill="#5755d9"></path></svg>