<?xml version="1.0" encoding="UTF-8" standalone="no"?>
<svg
   xmlns:dc="http://purl.org/dc/elements/1.1/"
   xmlns:cc="http://creativecommons.org/ns#"
   xmlns:rdf="http://www.w3.org/1999/02/22-rdf-syntax-ns#"
   xmlns:svg="http://www.w3.org/2000/svg"
   xmlns="http://www.w3.org/2000/svg"
   xmlns:sodipodi="http://sodipodi.sourceforge.net/DTD/sodipodi-0.dtd"
   xmlns:inkscape="http://www.inkscape.org/namespaces/inkscape"
   t="1500560440243"
   class="icon"
   style=""
   viewBox="0 0 1024 1024"
   version="1.1"
   p-id="4964"
   width="200"
   height="200"
   id="svg10"
   sodipodi:docname="musictest1.svg"
   inkscape:version="0.92.2 2405546, 2018-03-11"
   inkscape:export-filename="/home/feng/musictest1.svg.png"
   inkscape:export-xdpi="96"
   inkscape:export-ydpi="96">
  <metadata
     id="metadata14">
    <rdf:RDF>
      <cc:Work
         rdf:about="">
        <dc:format>image/svg+xml</dc:format>
        <dc:type
           rdf:resource="http://purl.org/dc/dcmitype/StillImage" />
        <dc:title />
      </cc:Work>
    </rdf:RDF>
  </metadata>
  <sodipodi:namedview
     pagecolor="#ffffff"
     bordercolor="#666666"
     borderopacity="1"
     objecttolerance="10"
     gridtolerance="10"
     guidetolerance="10"
     inkscape:pageopacity="0"
     inkscape:pageshadow="2"
     inkscape:window-width="722"
     inkscape:window-height="407"
     id="namedview12"
     showgrid="false"
     inkscape:lockguides="false"
     inkscape:zoom="3.337544"
     inkscape:cx="112.21479"
     inkscape:cy="83.012541"
     inkscape:window-x="730"
     inkscape:window-y="276"
     inkscape:window-maximized="0"
     inkscape:current-layer="svg10" />
  <defs
     id="defs4">
    <style
       type="text/css"
       id="style2" />
    <filter
       inkscape:collect="always"
       style="color-interpolation-filters:sRGB"
       id="filter15065"
       x="-0.1296"
       width="1.2592"
       y="-0.1296"
       height="1.2592">
      <feGaussianBlur
         inkscape:collect="always"
         stdDeviation="48.389327"
         id="feGaussianBlur15067" />
    </filter>
    <filter
       inkscape:collect="always"
       style="color-interpolation-filters:sRGB"
       id="filter17432"
       x="-0.014917089"
       width="1.0298342"
       y="-0.011837409"
       height="1.0236748">
      <feGaussianBlur
         inkscape:collect="always"
         stdDeviation="3.0330714"
         id="feGaussianBlur17434" />
    </filter>
  </defs>
  <path
     d="m 750.8581,371.86773 c -7.88651,-13.65643 -15.38045,-23.7607 -22.4843,-30.31173 -7.10169,-6.54935 -14.40664,-12.30969 -21.91501,-17.27986 -7.50954,-4.9704 -15.58948,-10.36606 -24.23947,-16.18946 -8.65234,-5.82388 -18.47077,-14.83758 -29.45421,-27.03972 -12.91843,-13.3969 -22.83822,-26.62374 -29.75533,-39.68379 -6.9181,-13.06169 -12.66013,-24.68337 -17.22759,-34.86257 -4.56745,-10.17929 -9.29222,-18.27903 -14.16586,-24.29966 -4.87852,-6.01988 -11.70657,-8.91516 -20.48649,-8.68623 -10.4208,0.01 -19.23483,3.85185 -26.43992,11.52755 -7.20619,7.67526 -11.63847,18.17051 -13.29574,31.48703 -8.86841,67.91116 -16.67372,128.95907 -23.41743,183.14641 l -24.26027,194.93677 c -5.8061,-3.57502 -14.96629,-7.83191 -27.47962,-12.7689 -12.51313,-4.93844 -27.01005,-8.15627 -43.49376,-9.65777 -16.48384,-1.50039 -33.96788,0.0178 -52.45341,4.55578 -18.48521,4.53518 -36.39655,14.51461 -53.73666,29.94019 -17.34045,15.42824 -27.35426,33.11333 -30.04481,53.06292 -2.69154,19.94797 0.24813,39.01403 8.82118,57.19968 8.57237,18.18165 21.90842,34.08537 40.01001,47.70563 18.10178,13.61907 39.32996,21.35411 63.68674,23.2068 23.94984,1.79299 44.44484,-0.48866 61.48945,-6.85237 17.04548,-6.36098 31.12677,-14.86731 42.24657,-25.52153 11.11998,-10.65558 19.26465,-22.52299 24.43554,-35.60472 5.17105,-13.0831 8.23508,-25.16298 9.19898,-36.2375 l 4.88633,-39.26269 8.74409,-70.26078 c 3.31471,-26.63449 6.93071,-54.86484 10.8521,-84.68519 3.91934,-29.82343 7.48023,-57.59152 10.68062,-83.30737 l 8.05836,-64.75077 3.68616,-29.61908 c 0.91436,-7.34721 4.00133,-12.06995 9.26473,-14.17022 5.26191,-2.09794 11.80219,2.2748 19.62023,13.12329 8.05665,12.27982 18.37077,25.67697 30.9432,40.19426 12.57363,14.51734 27.82332,25.07081 45.75556,31.66631 17.1709,6.0255 29.42904,13.84771 36.77591,23.46414 7.34671,9.61772 10.92937,23.51718 10.75235,41.70159 -0.14187,11.18563 0.6548,18.99397 2.3969,23.4273 1.74073,4.43464 4.01669,7.07281 6.82783,7.9149 2.81231,0.84233 6.68197,-1.79325 11.6123,-7.90474 4.92797,-6.1119 8.97024,-14.32721 12.1298,-24.64179 3.15958,-10.31459 4.51368,-22.0394 4.06532,-35.17012 -0.45099,-13.12837 -4.64803,-26.29371 -12.59038,-39.49199 z"
     p-id="4965"
     id="path6"
     inkscape:connector-curvature="0"
     style="fill:#5769c6;fill-opacity:0.84313725;stroke-width:1.25355649;filter:url(#filter17432);opacity:0.92" />
  <path
     d="M 582.28081,63.335855 C 336.88637,31.709841 112.3178,205.00271 80.691787,450.39715 49.065773,695.79159 222.35865,920.36016 467.75309,951.98617 713.14653,983.61206 937.7161,810.31931 969.34211,564.92487 1000.9681,319.53043 827.67426,94.96174 582.28081,63.335855 Z M 886.34103,718.32085 c -13.55818,23.22751 -29.47384,45.26694 -47.30803,65.50536 -17.66999,20.05188 -37.37542,38.51355 -58.56855,54.86676 -21.19425,16.35408 -44.04689,30.73499 -67.92468,42.74341 -24.09901,12.12106 -49.45261,21.92879 -75.35861,29.15372 -26.37871,7.35659 -53.6022,12.10681 -80.91609,14.12407 -28.04269,2.07053 -56.53822,1.27871 -84.69435,-2.35001 -28.15613,-3.62871 -55.92129,-10.08766 -82.52267,-19.20063 -25.91103,-8.87579 -51.04042,-20.37417 -74.69094,-34.17844 C 291.12947,855.4279 269.09004,839.51224 248.85175,821.67706 228.79887,804.00694 210.3382,784.30164 193.98499,763.10851 177.63178,741.91538 163.25,719.06162 151.24145,695.18482 c -12.12007,-24.09888 -21.92878,-49.45261 -29.15259,-75.35947 -7.35672,-26.37772 -12.10893,-53.60146 -14.1242,-80.9151 -2.06942,-28.04355 -1.27958,-56.53934 2.34914,-84.69547 3.62871,-28.15613 10.08866,-55.92116 19.20163,-82.52254 8.87578,-25.91103 20.37429,-51.04141 34.17843,-74.69094 13.55719,-23.22764 29.47285,-45.26707 47.30704,-65.50549 17.67012,-20.05288 37.37542,-38.51355 58.56855,-54.86676 21.19313,-16.35321 44.0459,-30.73512 67.92369,-42.74354 24.09888,-12.12007 49.45347,-21.92766 75.35947,-29.15259 26.37759,-7.355723 53.60146,-12.108926 80.91609,-14.124069 28.04256,-2.069544 56.53835,-1.279702 84.69448,2.349012 28.15613,3.628714 55.92116,10.088667 82.52254,19.201627 25.91004,8.87565 51.04029,20.37516 74.69094,34.17843 23.22665,13.55707 45.26608,29.47272 65.5045,47.30691 20.05287,17.67012 38.51355,37.37543 54.86775,58.56868 16.35421,21.19326 30.73413,44.04577 42.74354,67.92369 12.12007,24.09888 21.92766,49.45347 29.15259,75.35947 7.35672,26.37772 12.10794,53.60133 14.12507,80.91622 2.07053,28.04269 1.27871,56.53822 -2.35001,84.69435 -3.62871,28.15613 -10.08766,55.92129 -19.20076,82.52366 -8.87665,25.90991 -20.37503,51.0393 -34.17831,74.68995 z"
     p-id="4966"
     id="path8"
     inkscape:connector-curvature="0"
     style="fill:#5764c6;opacity:0.797;filter:url(#filter15065)" />
  <path
     style="opacity:0.797;fill:#ffffff;fill-opacity:1;fill-rule:nonzero;stroke-width:0.84745765;"
     d="M 86.694915,179.24216 C 69.203336,175.329 54.205137,166.98581 43.100493,154.99147 9.7893288,119.01143 14.815425,62.801023 53.94256,33.736909 67.583774,23.604049 81.657247,18.695289 98.983051,18.027 c 24.480769,-0.944269 43.805089,6.512127 60.666299,23.408438 12.90447,12.931346 20.26048,26.829948 23.23854,43.907426 7.15866,41.050796 -18.99464,81.916206 -59.32857,92.702876 -8.89056,2.37763 -28.709344,3.02085 -36.864405,1.19642 z m 5.312277,-27.81119 c 5.154289,-3.02061 8.891208,-7.68275 10.317218,-12.87165 0.64048,-2.33051 3.1552,-20.82627 5.58828,-41.101693 3.16411,-26.367246 4.77645,-37.226378 5.66232,-38.135593 1.09607,-1.124968 1.54657,-0.893015 3.91651,2.016524 6.90096,8.472216 10.24886,11.528707 15.47375,14.1269 6.14715,3.056807 7.96693,5.541518 7.96693,10.877966 0,4.223983 1.37301,7.972918 2.75169,7.513359 1.89975,-0.633252 4.13572,-5.578625 4.61297,-10.202678 0.81789,-7.924589 -3.4516,-14.85406 -13.62498,-22.113633 -6.24668,-4.457535 -10.81902,-10.205239 -15.76052,-19.811875 -3.83948,-7.464227 -5.41712,-8.633543 -9.53571,-7.06766 -1.23921,0.471148 -2.83999,1.752322 -3.55729,2.847055 -0.89614,1.367691 -2.76598,13.828501 -5.97652,39.828106 -2.569792,20.810725 -4.672348,38.032912 -4.672348,38.271522 0,0.23862 -1.811441,-0.38136 -4.025424,-1.3777 -3.098521,-1.39443 -5.781661,-1.82621 -11.652543,-1.87519 -6.700097,-0.0559 -8.148666,0.21144 -11.918182,2.19956 -5.509177,2.90565 -10.17776,8.09463 -11.45169,12.72819 -2.009143,7.30768 1.527674,16.33251 8.647411,22.06543 4.772473,3.84286 8.719072,4.9524 16.495434,4.63751 5.599031,-0.22673 7.57078,-0.69558 10.742694,-2.55445 z"
     id="path13539"
     inkscape:connector-curvature="0"
     transform="scale(5.12)" />
</svg>
