<?xml version="1.0" standalone="no"?><!DOCTYPE svg PUBLIC "-//W3C//DTD SVG 1.1//EN" "http://www.w3.org/Graphics/SVG/1.1/DTD/svg11.dtd"><svg t="1500560440243" class="icon" style="" viewBox="0 0 1024 1024" version="1.1" xmlns="http://www.w3.org/2000/svg" p-id="4964" xmlns:xlink="http://www.w3.org/1999/xlink" width="200" height="200"><defs><style type="text/css"></style></defs><path d="M687.608 403.725c-8.028-9.421-15.357-16.226-21.989-20.414-6.63-4.187-13.348-7.764-20.154-10.73-6.807-2.966-14.136-6.193-21.987-9.683-7.853-3.49-17.015-9.248-27.485-17.273-12.215-8.725-21.901-17.622-29.055-26.694-7.155-9.073-13.175-17.187-18.061-24.34-4.886-7.153-9.687-12.736-14.396-16.75-4.713-4.013-10.733-5.496-18.062-4.449-8.726 1.047-15.707 4.798-20.941 11.254-5.235 6.456-7.853 14.743-7.853 24.862-0.349 51.646-0.523 98.056-0.523 139.232l0 148.129c-5.235-2.093-13.35-4.361-24.344-6.803-10.994-2.443-23.47-3.402-37.431-2.88-13.961 0.523-28.445 3.402-43.453 8.638-15.008 5.234-28.968 14.48-41.882 27.74-12.914 13.262-19.457 27.48-19.631 42.66-0.175 15.179 4.274 29.137 13.349 41.875 9.074 12.735 21.9 23.292 38.479 31.667 16.579 8.374 35.163 12.038 55.754 10.993 20.244-1.049 37.17-4.799 50.781-11.256 13.612-6.455 24.518-14.218 32.72-23.291 8.202-9.074 13.786-18.757 16.753-29.051 2.967-10.295 4.274-19.63 3.927-28.004l0-29.835 0-53.39c0-20.239 0.086-41.701 0.262-64.382 0.174-22.683 0.262-43.794 0.262-63.335l0-49.203 0-22.507c0-5.583 2.093-9.421 6.282-11.516 4.188-2.093 10.121 0.523 17.799 7.852 8.027 8.375 18.061 17.36 30.103 26.957 12.043 9.597 25.914 15.964 41.619 19.105 15.008 2.791 26.089 7.415 33.244 13.87 7.155 6.456 11.604 16.488 13.351 30.098 1.047 8.375 2.528 14.132 4.449 17.272 1.92 3.141 4.101 4.886 6.543 5.235 2.443 0.349 5.409-2.007 8.901-7.067 3.49-5.06 6.019-11.604 7.59-19.629s1.483-16.924-0.261-26.694C700.522 422.22 695.635 412.798 687.608 403.725z" p-id="4965" fill="#5764c6"></path><path d="M512 64C264.576 64 64 264.576 64 512s200.576 448 448 448c247.423 0 448-200.576 448-448S759.423 64 512 64zM897.287 674.747c-10.478 24.77-23.446 48.663-38.547 71.015-14.962 22.146-32.146 42.975-51.075 61.903-18.93 18.929-39.757 36.113-61.904 51.075-22.352 15.102-46.244 28.07-71.014 38.547-25.222 10.668-51.615 18.859-78.447 24.351-27.548 5.638-55.911 8.495-84.3 8.495-28.389 0-56.752-2.857-84.3-8.495-26.833-5.491-53.226-13.683-78.447-24.351-24.77-10.477-48.663-23.445-71.015-38.547-22.147-14.962-42.975-32.146-61.903-51.075s-36.113-39.757-51.075-61.903c-15.101-22.352-28.07-46.244-38.546-71.015-10.668-25.221-18.861-51.614-24.351-78.446-5.637-27.549-8.496-55.912-8.496-84.301 0-28.389 2.858-56.752 8.496-84.3 5.491-26.833 13.683-53.227 24.351-78.447 10.477-24.77 23.445-48.663 38.546-71.015 14.962-22.147 32.146-42.975 51.075-61.903s39.756-36.113 61.903-51.075c22.352-15.101 46.245-28.069 71.015-38.546 25.221-10.667 51.614-18.861 78.447-24.351 27.548-5.637 55.911-8.496 84.3-8.496 28.389 0 56.752 2.858 84.3 8.496 26.832 5.491 53.226 13.684 78.447 24.351 24.769 10.477 48.662 23.445 71.014 38.546 22.147 14.962 42.975 32.146 61.904 51.075 18.929 18.929 36.112 39.756 51.075 61.903 15.101 22.352 28.069 46.245 38.546 71.015 10.668 25.221 18.86 51.614 24.352 78.447 5.638 27.548 8.495 55.911 8.495 84.3 0 28.389-2.857 56.752-8.495 84.301C916.146 623.133 907.954 649.526 897.287 674.747z" p-id="4966" fill="#5764c6"></path></svg>