<?xml version="1.0" standalone="no"?><!DOCTYPE svg PUBLIC "-//W3C//DTD SVG 1.1//EN" "http://www.w3.org/Graphics/SVG/1.1/DTD/svg11.dtd"><svg t="1508594616851" class="icon" style="" viewBox="0 0 1024 1024" version="1.1" xmlns="http://www.w3.org/2000/svg" p-id="2673" xmlns:xlink="http://www.w3.org/1999/xlink" width="200" height="200"><defs><style type="text/css"></style></defs><path d="M425.856 512.0064l289.824-289.8304c17.0304-17.024 17.0304-44.64 0-61.6576l-12.3392-12.3328c-17.024-17.0304-44.6272-17.0304-61.6576 0L321.0688 468.8128c-0.0064 0.0064-0.0192 0.0128-0.0256 0.0256l-12.3328 12.3328c-17.0304 17.024-17.0304 44.6336 0 61.6512l12.3328 12.3456c0.0384 0.0448 0.0896 0.0768 0.128 0.1152l320.5248 320.5312c17.0304 17.0368 44.6336 17.0368 61.6576 0l12.3392-12.3328c17.0304-17.0304 17.0304-44.6272 0-61.6576L425.856 512.0064z" p-id="2674" fill="#5764c6"></path></svg>