<?xml version="1.0" standalone="no"?><!DOCTYPE svg PUBLIC "-//W3C//DTD SVG 1.1//EN" "http://www.w3.org/Graphics/SVG/1.1/DTD/svg11.dtd"><svg t="1509366237945" class="icon" style="" viewBox="0 0 1024 1024" version="1.1" xmlns="http://www.w3.org/2000/svg" p-id="3374" xmlns:xlink="http://www.w3.org/1999/xlink" width="200" height="200"><defs><style type="text/css"></style></defs><path d="M204.8 869.1712L234.2912 839.68a431.9232 431.9232 0 0 1-33.3824-31.5392L171.8272 837.632q15.9744 16.5888 32.9728 31.5392z" p-id="3375" fill="#5755d9"></path><path d="M512 40.96A471.04 471.04 0 0 0 144.7936 806.912L174.08 778.24a430.08 430.08 0 1 1 92.16 87.04l-28.672 29.4912A471.04 471.04 0 1 0 512 40.96z" p-id="3376" fill="#5755d9"></path><path d="M522.24 634.88v-40.96a81.92 81.92 0 0 0 0-163.84v-40.96a122.88 122.88 0 0 1 0 245.76zM481.28 284.8768a20.48 20.48 0 0 0-4.096 0 86.8352 86.8352 0 0 0-67.584 24.7808l-63.488 63.488h-69.632a40.96 40.96 0 0 0-40.96 40.96v204.8a40.96 40.96 0 0 0 40.96 40.96h77.0048l55.296 55.296A81.92 81.92 0 0 0 476.16 737.28a20.48 20.48 0 0 0 5.12 0 20.48 20.48 0 0 0 20.48-20.48V305.3568a20.48 20.48 0 0 0-20.48-20.48z m-20.48 412.672a40.96 40.96 0 0 1-23.1424-11.264l-66.1504-66.1504h-13.1072v-1.2288h-81.92v-204.8h27.648l-1.2288 1.2288h57.9584l76.5952-76.5952A40.96 40.96 0 0 1 460.8 327.68v369.8688zM727.04 495.616h40.96a20.48 20.48 0 0 1 0 40.96h-40.96a20.48 20.48 0 0 1 0-40.96zM646.3488 342.016L675.84 312.9344a20.48 20.48 0 0 1 28.8768 28.8768L675.84 370.8928a20.48 20.48 0 0 1-28.8768-28.8768zM682.5984 653.1072l28.8768 28.8768a20.48 20.48 0 1 1-28.8768 28.8768l-28.8768-28.8768a20.48 20.48 0 1 1 28.8768-28.8768z" p-id="3377" fill="#5755d9"></path></svg>