<?xml version="1.0" standalone="no"?><!DOCTYPE svg PUBLIC "-//W3C//DTD SVG 1.1//EN" "http://www.w3.org/Graphics/SVG/1.1/DTD/svg11.dtd"><svg class="icon" width="200px" height="200.00px" viewBox="0 0 1024 1024" version="1.1" xmlns="http://www.w3.org/2000/svg"><path fill="#5764c6" d="M313.393 72.132c5.677 1.111 11.421 1.958 17.019 3.379 38.244 9.714 65.353 43.768 65.623 83.265 0.33 48.452 0.113 96.908 0.114 145.36 0.004 183.258-0.236 366.516 0.188 549.773 0.093 39.784-23.458 71.967-55.745 84.47-7.275 2.816-15.101 4.216-22.672 6.267h-20.37c-0.832-0.343-1.637-0.872-2.502-1.002-35.767-5.365-63.921-30.7-72.781-65.642-1.145-4.514-1.878-9.134-2.802-13.704V152.48c0.32-0.855 0.814-1.688 0.935-2.571 5.108-37.558 30.957-66.418 67.387-75.022 5.074-1.198 10.278-1.85 15.422-2.755h10.184zM706.081 944.646c-4.524-1.091-9.082-2.063-13.569-3.29-38.146-10.424-64.49-44.81-64.492-84.267-0.016-232.294-0.017-464.589 0-696.883 0.003-45.2 34.362-82.845 79.356-87.109 1.472-0.14 2.909-0.636 4.363-0.965h9.054c1.449 0.332 2.883 0.831 4.351 0.969 36.203 3.421 66.553 28.915 76.217 64.124 1.181 4.297 2.123 8.66 3.175 12.992v716.344c-0.322 0.865-0.792 1.705-0.947 2.6-6.523 37.597-28.373 61.53-64.693 72.507-4.075 1.232-8.292 1.997-12.443 2.979l-20.372-0.001z" /></svg>