<?xml version="1.0" standalone="no"?><!DOCTYPE svg PUBLIC "-//W3C//DTD SVG 1.1//EN" "http://www.w3.org/Graphics/SVG/1.1/DTD/svg11.dtd"><svg t="1509451549491" class="icon" style="" viewBox="0 0 1024 1024" version="1.1" xmlns="http://www.w3.org/2000/svg" p-id="2414" xmlns:xlink="http://www.w3.org/1999/xlink" width="200" height="200"><defs><style type="text/css"></style></defs><path d="M959.36 720.256c4.032 90.56-58.176 192.064-164.864 253.056-138.944 79.488-300.352 65.536-360.512-43.072-57.92-104.512 3.712-251.392 142.656-330.944 112.192-64.192 238.08-62.976 314.432-6.208V34.176C891.072 15.296 906.496 0 925.568 0 944.576 0 960 15.296 960 34.176v683.008c0 1.088-0.512 1.984-0.64 3.072z m-79.872-52.864c-48.128-73.024-180.032-75.584-282.624-14.208-102.592 61.376-151.872 177.984-103.68 251.008 48.128 73.024 175.488 74.88 278.08 13.504C873.856 856.32 927.68 740.48 879.488 667.392zM718.784 307.328H98.432C79.424 307.328 64 292.032 64 273.216c0-18.88 15.424-34.176 34.432-34.176H718.72c19.008 0 34.432 15.296 34.432 34.176 0.064 18.816-15.36 34.112-34.368 34.112z m0-204.864H98.432C79.424 102.464 64 87.168 64 68.288c0-18.88 15.424-34.176 34.432-34.176H718.72c19.008 0 34.432 15.296 34.432 34.176 0.064 18.88-15.36 34.176-34.368 34.176zM98.432 443.968h379.072c19.072 0 34.496 15.296 34.496 34.112 0 18.816-15.424 34.176-34.496 34.176H98.432C79.424 512.256 64 496.96 64 478.08c0-18.816 15.424-34.112 34.432-34.112z m0 204.864h206.784c19.008 0 34.432 15.296 34.432 34.176 0 18.816-15.424 34.176-34.432 34.176H98.432C79.424 717.12 64 701.824 64 683.008c0-18.88 15.424-34.176 34.432-34.176z" fill="#5764c6" p-id="2415"></path></svg>