<?xml version="1.0" standalone="no"?><!DOCTYPE svg PUBLIC "-//W3C//DTD SVG 1.1//EN" "http://www.w3.org/Graphics/SVG/1.1/DTD/svg11.dtd"><svg t="1500971977831" class="icon" style="" viewBox="0 0 1024 1024" version="1.1" xmlns="http://www.w3.org/2000/svg" p-id="5098" xmlns:xlink="http://www.w3.org/1999/xlink" width="200" height="200"><defs><style type="text/css"></style></defs><path d="M217.358222 979.882667c-58.154667 0-97.678222-46.72-97.678222-116.252444L119.68 160.355556c0-69.532444 39.523556-116.252444 97.706667-116.252444 22.229333 0 45.696 6.897778 69.262222 20.494222l553.585778 352.284444c40.917333 23.594667 64.085333 57.628444 64.085333 95.175111 0 37.518222-23.04 71.495111-64.938667 95.701333l-551.722667 351.004444C263.04 972.999111 239.601778 979.882667 217.358222 979.882667zM217.386667 101.006222c-36.451556 0-40.817778 41.514667-40.817778 59.363556l0 703.274667c0 17.848889 4.380444 59.363556 40.789333 59.363556 11.946667 0 26.211556-4.451556 40.817778-12.871111l551.637333-351.004444c24.263111-14.037333 37.632-30.961778 37.632-47.061333 0-16.142222-13.326222-33.095111-36.608-46.535111L257.137778 113.251556C243.584 105.457778 229.347556 101.006222 217.386667 101.006222z" p-id="5099" fill="#5764c6"></path><path d="M500.096 696.248889c-4.736 0-9.344-2.346667-12.060444-6.656-4.181333-6.641778-2.176-15.416889 4.451556-19.612444l7.68-4.835556c6.656-4.167111 15.431111-2.190222 19.612444 4.465778 4.195556 6.641778 2.190222 15.416889-4.451556 19.612444l-7.68 4.835556C505.301333 695.537778 502.684444 696.248889 500.096 696.248889z" p-id="5100" fill="#5764c6"></path><path d="M291.754667 827.292444c-4.736 0-9.344-2.346667-12.060444-6.656-4.181333-6.641778-2.176-15.431111 4.465778-19.612444l159.616-100.408889c6.641778-4.152889 15.416889-2.190222 19.612444 4.465778 4.181333 6.641778 2.176 15.431111-4.465778 19.612444l-159.616 100.408889C296.96 826.581333 294.328889 827.292444 291.754667 827.292444z" p-id="5101" fill="#5764c6"></path></svg>