<?xml version="1.0" standalone="no"?><!DOCTYPE svg PUBLIC "-//W3C//DTD SVG 1.1//EN" "http://www.w3.org/Graphics/SVG/1.1/DTD/svg11.dtd"><svg class="icon" width="200px" height="200.00px" viewBox="0 0 1024 1024" version="1.1" xmlns="http://www.w3.org/2000/svg"><path fill="#5764c6" d="M991.029 512c0-28.723-38.398-52.098-38.398-52.098l-432.591-252.086c-3.402-3.402-9.367-5.124-17.897-5.125-13.654 0-20.46 6.804-20.46 20.46v199.372l-373.202-214.748c-3.402-3.358-8.528-5.082-15.332-5.082-15.331 0-23.022 6.807-23.018 20.46v577.699c0 13.654 7.687 20.459 23.018 20.46 6.807 0 11.93-1.723 15.331-5.125l373.202-214.748v199.418c0 13.654 6.804 20.46 20.46 20.46 8.529 0 14.493-1.724 17.897-5.125l429.056-251.997c-0.045 0 41.935-23.463 41.931-52.184z" /></svg>