<?xml version="1.0" standalone="no"?><!DOCTYPE svg PUBLIC "-//W3C//DTD SVG 1.1//EN" "http://www.w3.org/Graphics/SVG/1.1/DTD/svg11.dtd"><svg class="icon" width="200px" height="200.00px" viewBox="0 0 1024 1024" version="1.1" xmlns="http://www.w3.org/2000/svg"><path fill="#5764c6" d="M32.971000000000004 511.99999999999983c-8.881784197001252e-15 28.723 38.39799999999997 52.098000000000006 38.39799999999997 52.098000000000006l432.59099999999984 252.08600000000013c3.4019999999999992 3.4020000000000015 9.366999999999999 5.124000000000001 17.89699999999999 5.125000000000004 13.654 8.881784197001252e-16 20.46-6.803999999999991 20.460000000000008-20.45999999999999l8.526512829121202e-14-199.372 373.2019999999999 214.7480000000001c3.401999999999999 3.3580000000000014 8.527999999999997 5.082000000000002 15.332 5.082000000000004 15.331 5.329070518200751e-15 23.022-6.8069999999999915 23.018000000000008-20.459999999999997l1.7053025658242404e-13-577.6989999999998c8.881784197001252e-16-13.654-7.686999999999994-20.459000000000007-23.017999999999994-20.460000000000004-6.807-4.440892098500626e-16-11.93 1.722999999999998-15.331 5.124999999999994l-373.202 214.74799999999985 7.105427357601002e-14-199.418c8.881784197001252e-16-13.654-6.803999999999991-20.46-20.45999999999999-20.460000000000008-8.529-2.6645352591003757e-15-14.492999999999999 1.7239999999999949-17.897 5.124999999999994l-429.05600000000004 251.99699999999984c0.045 3.469446951953614e-18-41.93500000000002 23.462999999999987-41.931000000000026 52.18399999999998z" /></svg>