<?xml version="1.0" standalone="no"?><!DOCTYPE svg PUBLIC "-//W3C//DTD SVG 1.1//EN" "http://www.w3.org/Graphics/SVG/1.1/DTD/svg11.dtd"><svg class="icon" width="200px" height="200.00px" viewBox="0 0 1024 1024" version="1.1" xmlns="http://www.w3.org/2000/svg"><path fill="#5764c6" d="M149.797 934.636h45.805c21.548 0 39.014-17.469 39.013-39.013v-315.391c4.453 3.708 9.372 7.255 14.777 10.603l536.372 332.295c60.799 37.665 110.543 9.966 110.545-61.557v-698.375c0-71.523-49.158-98.293-109.241-59.492l-538.983 348.095c-4.896 3.162-9.381 6.483-13.471 9.936v-331.49c0-21.548-17.462-39.011-39.014-39.011h-45.805c-21.548 0-39.013 17.465-39.014 39.011v765.382c0 21.548 17.469 39.011 39.014 39.011z" /></svg>