<?xml version="1.0" standalone="no"?><!DOCTYPE svg PUBLIC "-//W3C//DTD SVG 1.1//EN" "http://www.w3.org/Graphics/SVG/1.1/DTD/svg11.dtd"><svg class="icon" width="200px" height="200.00px" viewBox="0 0 1024 1024" version="1.1" xmlns="http://www.w3.org/2000/svg"><path fill="#5764c6" d="M851.565 115.778h-42.943c-20.201 0-36.576 16.377-36.575 36.575v295.68c-4.175-3.476-8.786-6.802-13.853-9.94l-502.849-311.527c-56.999-35.311-103.634-9.343-103.636 57.71v654.727c0 67.054 46.086 92.15 102.413 55.774l505.296-326.339c4.59-2.963 8.795-6.078 12.629-9.315v310.772c0 20.201 16.371 36.573 36.576 36.573h42.943c20.201 0 36.575-16.373 36.576-36.573v-717.547c0-20.201-16.377-36.573-36.576-36.573z" /></svg>