<?xml version="1.0" standalone="no"?><!DOCTYPE svg PUBLIC "-//W3C//DTD SVG 1.1//EN" "http://www.w3.org/Graphics/SVG/1.1/DTD/svg11.dtd"><svg t="1509451389352" class="icon" style="" viewBox="0 0 1024 1024" version="1.1" xmlns="http://www.w3.org/2000/svg" p-id="1129" xmlns:xlink="http://www.w3.org/1999/xlink" width="200" height="200"><defs><style type="text/css"></style></defs><path d="M159.9488 803.2256a243.3024 243.3024 0 0 0-12.9024 46.6944h40.96a203.1616 203.1616 0 0 1 11.0592-36.2496zM677.0688 649.0112a266.24 266.24 0 1 0-330.1376 0 245.76 245.76 0 0 0-168.96 116.5312l40.96 11.0592A204.8 204.8 0 0 1 389.12 686.08h40.96v-36.0448a225.28 225.28 0 0 1-51.2-28.2624l-2.6624-2.048a225.28 225.28 0 0 1-30.5152-27.8528l-3.8912-4.3008-7.168-8.8064-4.9152-6.5536-5.9392-8.3968q-4.7104-6.9632-8.8064-14.336l-3.6864-6.9632c-1.8432-3.4816-3.4816-7.168-5.12-10.8544l-3.072-7.168a179.2 179.2 0 0 1-4.9152-13.5168l-1.6384-4.7104c-1.8432-6.144-3.4816-12.4928-4.9152-18.8416 0-1.8432 0-3.6864-1.024-5.5296q-1.4336-7.3728-2.2528-15.1552v-5.9392c0-6.7584-1.024-13.7216-1.024-20.48a225.28 225.28 0 0 1 202.3424-224.0512 228.7616 228.7616 0 0 1 46.08 0A225.28 225.28 0 0 1 655.36 266.24a225.28 225.28 0 0 1 50.5856 59.392 223.4368 223.4368 0 0 1 30.3104 91.3408A227.9424 227.9424 0 0 1 737.28 440.32c0 6.9632 0 13.7216-1.024 20.48v5.9392c0 1.8432-1.4336 10.0352-2.2528 14.9504s0 3.8912-1.024 5.7344c-1.4336 6.3488-2.8672 12.6976-4.9152 18.8416l-1.6384 4.7104c-1.4336 4.5056-3.072 9.0112-4.9152 13.5168L716.8 532.48c-1.6384 3.6864-3.2768 7.168-5.12 10.6496l-3.6864 7.168q-4.096 7.3728-8.8064 14.336l-5.9392 8.3968-4.7104 6.3488-7.168 8.8064-3.8912 4.3008a225.28 225.28 0 0 1-30.5152 28.0576l-2.6624 2.048A225.28 225.28 0 0 1 593.92 650.0352v36.0448h40.96a204.8 204.8 0 0 1 200.704 163.84h40.96a245.76 245.76 0 0 0-199.4752-200.9088z" p-id="1130" fill="#5764c6"></path></svg>