<?xml version="1.0" standalone="no"?><!DOCTYPE svg PUBLIC "-//W3C//DTD SVG 1.1//EN" "http://www.w3.org/Graphics/SVG/1.1/DTD/svg11.dtd"><svg t="1509451598161" class="icon" style="" viewBox="0 0 1024 1024" version="1.1" xmlns="http://www.w3.org/2000/svg" p-id="2591" xmlns:xlink="http://www.w3.org/1999/xlink" width="200" height="200"><defs><style type="text/css"></style></defs><path d="M832.496 876h-640V144h538.976l101.024 101.024V876z m-608-32h576V258.288L718.224 176H224.496v668z" p-id="2592" fill="#5764c6"></path><path d="M586.416 798.704c-51.408 0-93.232-39.264-93.232-87.552s41.824-87.552 93.232-87.552c24.672 0 47.92 8.96 65.488 25.216a16 16 0 1 1-21.744 23.472c-11.632-10.768-27.152-16.688-43.728-16.688-33.76 0-61.232 24.928-61.232 55.552s27.472 55.552 61.232 55.552c16.592 0 32.128-5.936 43.744-16.704a16 16 0 1 1 21.744 23.472c-17.552 16.256-40.816 25.232-65.504 25.232z" p-id="2593" fill="#5764c6"></path><path d="M641.68 777.728a16 16 0 0 1-16-16l-0.128-378.544a16 16 0 1 1 32 0l0.128 378.544a16 16 0 0 1-16 16z" p-id="2594" fill="#5764c6"></path><path d="M641.68 412.64a32 32 0 0 1-22-55.232l59.504-56.336a32 32 0 1 1 44 46.464l-59.504 56.336a31.84 31.84 0 0 1-22 8.768z" p-id="2595" fill="#5764c6"></path><path d="M512 400H288a16 16 0 1 1 0-32h224a16 16 0 1 1 0 32z" p-id="2596" fill="#5764c6"></path><path d="M416 608h-128a16 16 0 1 1 0-32h128a16 16 0 1 1 0 32z" p-id="2597" fill="#5764c6"></path></svg>