<?xml version="1.0" standalone="no"?><!DOCTYPE svg PUBLIC "-//W3C//DTD SVG 1.1//EN" "http://www.w3.org/Graphics/SVG/1.1/DTD/svg11.dtd"><svg t="1509451376922" class="icon" style="" viewBox="0 0 1024 1024" version="1.1" xmlns="http://www.w3.org/2000/svg" p-id="949" xmlns:xlink="http://www.w3.org/1999/xlink" width="200" height="200"><defs><style type="text/css"></style></defs><path d="M525.312 409.6c-78.0288-13.7216-150.7328 29.2864-162.6112 96.0512s40.96 132.096 119.808 145.8176 150.7328-29.2864 162.6112-96.0512-41.7792-132.7104-119.808-145.8176z m79.4624 138.8544c-7.7824 44.6464-59.392 72.704-115.0976 62.8736S395.264 556.8512 403.2512 512s59.392-72.704 115.0976-62.8736 94.4128 54.0672 86.4256 98.7136z" p-id="950" fill="#5764c6"></path><path d="M901.12 381.952a413.9008 413.9008 0 1 1-327.68-274.432 266.24 266.24 0 0 1 5.3248-40.96A450.56 450.56 0 1 0 939.4176 368.64a264.192 264.192 0 0 1-38.2976 13.312z" p-id="951" fill="#5764c6"></path><path d="M703.2832 107.52a20.48 20.48 0 0 1 16.5888 23.7568l-71.0656 403.456a20.48 20.48 0 1 1-40.96-7.168l71.0656-403.456a20.48 20.48 0 0 1 24.3712-16.5888zM297.3696 630.9888A163.84 163.84 0 0 1 286.72 573.44c0-6.7584-40.96-5.12-40.96 0a204.8 204.8 0 0 0 15.5648 78.2336zM450.56 737.28a163.84 163.84 0 0 1-134.144-70.0416l-35.6352 20.48A204.8 204.8 0 0 0 450.56 778.24c6.5536 0 3.8912-40.96 0-40.96z" p-id="952" fill="#5764c6"></path><path d="M920.1664 314.5728a287.9488 287.9488 0 0 0-42.1888-3.8912 245.76 245.76 0 0 0-189.0304-160.768 286.72 286.72 0 0 0 3.8912-40.96h3.2768a286.72 286.72 0 0 1 225.28 204.8z" p-id="953" fill="#5764c6"></path></svg>