<?xml version="1.0" standalone="no"?><!DOCTYPE svg PUBLIC "-//W3C//DTD SVG 1.1//EN" "http://www.w3.org/Graphics/SVG/1.1/DTD/svg11.dtd"><svg t="1531845206662" class="icon" style="" viewBox="0 0 1024 1024" version="1.1" xmlns="http://www.w3.org/2000/svg" p-id="2554" xmlns:xlink="http://www.w3.org/1999/xlink" width="200" height="200"><defs><style type="text/css"></style></defs><path d="M510.413364 958.171736c-246.768243 0-447.517383-200.762443-447.517383-447.524546 0-246.75494 200.74914-447.50408 447.517383-447.50408 246.75494 0 447.517383 200.74914 447.517383 447.50408C957.930747 757.408269 757.168304 958.171736 510.413364 958.171736zM510.413364 118.616538c-216.174458 0-392.044978 175.87052-392.044978 392.031675 0 216.181621 175.869496 392.052141 392.044978 392.052141 216.175481 0 392.043954-175.869496 392.043954-392.052141C902.457318 294.487058 726.588845 118.616538 510.413364 118.616538z" p-id="2555" fill="#5764c6"></path><path d="M510.413364 614.929254c-57.503669 0-104.282065-46.778396-104.282065-104.282065 0-57.503669 46.777373-104.282065 104.282065-104.282065s104.281041 46.777373 104.281041 104.282065C614.694405 568.150858 567.917032 614.929254 510.413364 614.929254zM510.413364 461.838553c-26.924209 0-48.809659 21.898753-48.809659 48.809659s21.88545 48.809659 48.809659 48.809659c26.909883 0 48.808636-21.898753 48.808636-48.809659S537.323247 461.838553 510.413364 461.838553z" p-id="2556" fill="#5764c6"></path><path d="M186.517509 542.419823c-7.366781 0-13.489222-7.083326-13.840216-14.518668-0.243547-5.281283-0.36532-11.254322-0.36532-16.604166 0-7.665587 6.203282-14.193257 13.867846-14.193257 7.652284 0 13.867846 6.040576 13.867846 13.706163 0 4.915963 0.10847 11.024078 0.338714 15.872502 0.352017 7.664563-5.552459 15.736403-13.20372 15.736403C186.950368 542.419823 186.733427 542.419823 186.517509 542.419823z" p-id="2557" fill="#5764c6"></path><path d="M350.727455 806.786886c-2.315742 0-4.659113-0.569982-6.825452-1.787716-88.694041-50.326199-149.44773-136.561235-166.688393-236.603743-1.300622-7.55814 3.764744-14.722306 11.308557-16.021905 7.624654-1.312902 14.721283 3.765767 16.020882 11.30958 15.818267 91.834568 71.602781 170.972976 153.037489 217.181391 6.662747 3.76679 9.006118 12.242835 5.227048 18.906605C360.247272 804.266483 355.561553 806.786886 350.727455 806.786886z" p-id="2558" fill="#5764c6"></path><path d="M330.819033 693.351348c-3.588735 0-7.17747-1.38351-9.886161-4.145413-41.157375-41.881876-63.814398-97.259114-63.814398-155.968238 0-7.665587 6.203282-13.867846 13.867846-13.867846 7.65126 0 13.867846 6.202259 13.867846 13.867846 0 51.381228 19.839861 99.865475 55.865355 136.520303 5.363148 5.471618 5.281283 14.247492-0.176009 19.609617C337.848123 692.023096 334.325903 693.351348 330.819033 693.351348z" p-id="2559" fill="#5764c6"></path><path d="M376.865765 728.751602c-2.315742 0-4.672416-0.595564-6.825452-1.813299-4.483104-2.545986-8.871041-5.228071-13.163811-8.099469-6.364965-4.225231-8.098445-12.8384-3.858888-19.203364 4.251837-6.392594 12.8384-8.153704 19.230993-3.874237 3.738138 2.492774 7.570419 4.821819 11.484565 7.070023 6.66377 3.764744 8.992815 12.243859 5.214768 18.906605C386.385583 726.234269 381.699863 728.751602 376.865765 728.751602z" p-id="2560" fill="#5764c6"></path><path d="M395.568732 647.852084c-2.315742 0-4.672416-0.581238-6.825452-1.802042-34.981722-19.839861-56.704466-57.110719-56.704466-97.278557 0-7.664563 6.203282-13.867846 13.867846-13.867846 7.652284 0 13.867846 6.203282 13.867846 13.867846 0 30.201859 16.33299 58.235332 42.647309 73.145927 6.662747 3.778046 8.992815 12.243859 5.213745 18.906605C405.08855 645.333728 400.389528 647.852084 395.568732 647.852084z" p-id="2561" fill="#5764c6"></path><path d="M826.888202 547.8106c-0.541329 0-1.096984-0.028653-1.639337-0.096191-7.611352-0.893346-13.05534-7.78736-12.161994-15.397688 13.069667-110.959138-34.669614-220.887806-124.56911-286.910499-6.175653-4.523013-7.501858-13.204743-2.978844-19.380396 4.524037-6.161327 13.218046-7.502881 19.392676-2.965541 97.931426 71.900563 149.936871 191.647855 135.702682 312.50748C839.808466 542.623461 833.821101 547.8106 826.888202 547.8106z" p-id="2562" fill="#5764c6"></path><path d="M748.486574 522.700713c-0.541329 0-1.083681-0.025583-1.638313-0.094144-7.611352-0.89437-13.042037-7.78736-12.148691-15.398712 8.207939-69.638033-21.751397-138.63957-78.17036-180.068122-6.175653-4.523013-7.503904-13.204743-2.979868-19.379373 4.523013-6.16235 13.20372-7.502881 19.393699-2.965541 64.465221 47.319725 98.67537 126.126582 89.302909 205.665103C761.406838 517.513574 755.42152 522.700713 748.486574 522.700713z" p-id="2563" fill="#5764c6"></path><path d="M672.225703 489.88533c-0.541329 0-1.083681-0.026606-1.639337-0.094144-7.610328-0.89437-13.041014-7.78736-12.147668-15.398712 3.5345-30.03813-9.384741-59.792804-33.722032-77.66894-6.175653-4.523013-7.502881-13.204743-2.978844-19.380396 4.536316-6.161327 13.218046-7.489578 19.392676-2.965541 32.368198 23.768333 49.553603 63.327304 44.854581 103.265922C685.145967 484.698191 679.159626 489.88533 672.225703 489.88533z" p-id="2564" fill="#5764c6"></path></svg>