<?xml version="1.0" standalone="no"?><!DOCTYPE svg PUBLIC "-//W3C//DTD SVG 1.1//EN" "http://www.w3.org/Graphics/SVG/1.1/DTD/svg11.dtd"><svg t="1528374320162" class="icon" style="" viewBox="0 0 1167 1024" version="1.1" xmlns="http://www.w3.org/2000/svg" p-id="1245" xmlns:xlink="http://www.w3.org/1999/xlink" width="227.9296875" height="200"><defs><style type="text/css"></style></defs><path d="M193.225 621.115c17.818-4.943 28.242-23.401 23.298-41.198-5.543-19.981-8.363-40.725-8.363-61.695 0-126.768 103.141-229.909 229.909-229.909h311.524v59.306c0 19.034 13.245 26.408 29.416 16.376l142.733-88.414c16.17-10.031 16.334-26.677 0.351-36.997l-143.433-92.635c-15.984-10.32-29.065-3.193-29.065 15.82v59.594h-311.545c-79.287 0-153.836 30.878-209.907 86.95-56.050 56.072-86.93 130.62-86.93 209.907 0 27.026 3.646 53.806 10.815 79.616 4.12 14.812 17.572 24.514 32.239 24.514 2.947 0 5.974-0.39 8.961-1.236z" p-id="1246" fill="#5764c6"></path><path d="M964.362 412.918c-4.12-14.812-17.572-24.514-32.239-24.514-2.966 0-5.974 0.39-8.981 1.236-17.818 4.943-28.242 23.401-23.298 41.198 5.542 19.981 8.363 40.725 8.363 61.695 0 126.768-103.142 229.909-229.909 229.909h-311.504v-59.306c0-19.034-13.245-26.408-29.416-16.376l-142.733 88.414c-16.17 10.031-16.334 26.677-0.351 36.997l143.413 92.635c15.985 10.32 29.065 3.193 29.065-15.82v-59.594h311.524c79.287 0 153.836-30.878 209.907-86.95s86.95-130.62 86.95-209.907c0-27.007-3.625-53.806-10.793-79.616z" p-id="1247" fill="#5764c6"></path></svg>