<?xml version="1.0" standalone="no"?><!DOCTYPE svg PUBLIC "-//W3C//DTD SVG 1.1//EN" "http://www.w3.org/Graphics/SVG/1.1/DTD/svg11.dtd"><svg t="1500969141284" class="icon" style="" viewBox="0 0 1366 1024" version="1.1" xmlns="http://www.w3.org/2000/svg" p-id="4395" xmlns:xlink="http://www.w3.org/1999/xlink" width="266.796875" height="200"><defs><style type="text/css"></style></defs><path d="M1066.666667 938.666667 341.333333 938.666667C341.333333 938.666667 83.712 912.213333 85.333333 682.666667 86.229333 552.96 200.021333 434.346667 341.333333 426.666667 341.333333 250.026667 454.4 85.333333 640 85.333333 786.474667 85.333333 884.181333 174.933333 918.954667 299.093333 1130.368 290.133333 1273.344 457.386667 1280 597.333333 1285.76 718.08 1181.013333 873.813333 1066.666667 938.666667L1066.666667 938.666667ZM984.192 214.613333C921.557333 87.466667 791.168 0 640 0 437.376 0 271.786667 157.013333 257.408 355.84 108.458667 398.506667 0 528.64 0 682.666667 0 864.426667 151.04 1012.48 341.333333 1023.146667L1066.666667 1024C1213.312 960.426667 1365.333333 782.933333 1365.333333 618.666667 1365.333333 402.773333 1196.757333 226.986667 984.192 214.613333L984.192 214.613333ZM908.586667 528.64 725.333333 710.826667 725.333333 299.093333C725.333333 275.626667 706.261333 256.426667 682.666667 256.426667 659.114667 256.426667 640 275.626667 640 299.093333L640 709.546667 458.069333 528.64C441.344 512 414.165333 512 397.354667 528.64 380.629333 545.28 380.629333 572.16 397.354667 589.226667L650.837333 841.386667C659.797333 850.346667 671.616 854.186667 683.349333 853.333333 695.04 854.186667 706.901333 850.346667 715.818667 841.386667L969.301333 589.226667C986.026667 572.16 986.026667 545.28 969.301333 528.64 952.533333 512 925.354667 512 908.586667 528.64L908.586667 528.64Z" p-id="4396" fill="#5764c6"></path></svg>