<?xml version="1.0" standalone="no"?><!DOCTYPE svg PUBLIC "-//W3C//DTD SVG 1.1//EN" "http://www.w3.org/Graphics/SVG/1.1/DTD/svg11.dtd"><svg t="1500706067840" class="icon" style="" viewBox="0 0 1024 1024" version="1.1" xmlns="http://www.w3.org/2000/svg" p-id="10326" xmlns:xlink="http://www.w3.org/1999/xlink" width="200" height="200"><defs><style type="text/css"></style></defs><path d="M510.135536 869.071442c-26.820855 0-53.801347-11.336186-80.461543-36.927028L133.691885 544.80208C98.250698 502.354316 64.72821 462.200804 64.72821 384.353808c0-125.81345 106.639762-228.027413 237.546208-228.027413 49.333592 0 96.586802 14.408151 136.657426 41.531905 13.410428 9.031701 16.601096 26.808576 7.18361 39.677675-9.417487 12.881378-27.937283 15.947204-41.347711 6.898107-30.011524-20.367887-65.452711-31.104415-102.493325-31.104416-98.339726 0-178.159656 76.771501-178.159656 171.024142 0 54.710043 18.841114 80.307024 54.918797 123.520221l292.945959 283.956214c14.848173 14.259772 26.820855 19.922748 38.3177 20.082384 11.812023 0.148379 23.14821-5.519714 38.47222-20.219507L842.676281 506.645039c24.098861-25.133424 53.795207-67.580165 53.795207-122.450867 0-94.39488-79.980589-171.011862-178.165795-171.011862-44.532239 0-87.323834 15.929808-120.204709 44.746111L473.731418 377.467981c-11.651364 11.181667-30.325679 11.181667-41.983183 0-11.651364-11.200086-11.651364-29.131481 0-40.314171l125.32124-120.454396c44.859697-39.374776 101.851713-60.533678 161.238264-60.533678 131.072221 0 237.552348 102.374622 237.552348 228.027413 0 73.415057-38.150902 128.582517-70.241784 161.837922l-294.864658 285.952684c-26.822902 25.7515-53.636594 37.087687-80.618109 37.087687z" p-id="10327" fill="#5764c6"></path></svg>