<?xml version="1.0" standalone="no"?><!DOCTYPE svg PUBLIC "-//W3C//DTD SVG 1.1//EN" "http://www.w3.org/Graphics/SVG/1.1/DTD/svg11.dtd"><svg t="1500705150932" class="icon" style="" viewBox="0 0 1024 1024" version="1.1" xmlns="http://www.w3.org/2000/svg" p-id="4824" xmlns:xlink="http://www.w3.org/1999/xlink" width="200" height="200"><defs><style type="text/css"></style></defs><path d="M707.810664 147.347906c-77.036537 0-148.670018 74.374918-195.807594 130.200364-47.118134-55.834656-118.737288-130.200364-195.812711-130.200364-138.874931 0-251.851005 108.22384-251.851005 241.246483 0 79.359442 40.467667 135.035486 72.991408 179.77034 94.533027 129.930211 332.236823 291.6218 342.30411 298.435996 9.69378 6.564509 21.044292 9.851369 32.352849 9.851369 11.340279 0 22.664186-3.28686 32.347732-9.851369 10.076496-6.814196 247.800759-168.505785 342.30411-298.435996 32.544207-44.734854 73.021084-100.409874 73.021084-179.77034C959.660646 255.571746 846.685595 147.347906 707.810664 147.347906zM867.874173 554.712801c-37.588083 51.680033-106.21816 117.67612-198.469214 190.857862-72.972988 57.888432-135.444808 100.231819-138.069589 102.007255-5.671163 3.844561-12.353352 5.868661-19.34765 5.868661-6.992251 0-13.679557-2.026146-19.34151-5.860475-9.936303-6.726192-244.332774-166.125575-336.551082-292.874327-32.129768-44.192501-68.551282-94.288456-68.551282-166.117388 0-120.228245 102.570073-218.039945 228.64549-218.039945 28.897144 0 60.873416 13.251815 95.04161 39.388079 33.769105 25.830295 63.562665 59.496046 83.036181 82.5716l17.729803 21.0095 17.73492-21.004383c19.488867-23.080671 49.302893-56.751538 83.060741-82.573647 34.171264-26.13831 66.13935-39.391149 95.018074-39.391149 126.074394 0 228.644467 97.8117 228.644467 218.039945C936.455131 460.442764 900.019291 510.526439 867.874173 554.712801z" p-id="4825" fill="#5764c6"></path></svg>