<?xml version="1.0" standalone="no"?><!DOCTYPE svg PUBLIC "-//W3C//DTD SVG 1.1//EN" "http://www.w3.org/Graphics/SVG/1.1/DTD/svg11.dtd"><svg t="1532018955634" class="icon" style="" viewBox="0 0 1024 1024" version="1.1" xmlns="http://www.w3.org/2000/svg" p-id="5485" xmlns:xlink="http://www.w3.org/1999/xlink" width="200" height="200"><defs><style type="text/css"></style></defs><path d="M869.283914 879.14779C863.754683 884.403973 858.088927 889.591894 852.423172 894.506766L820.339977 857.781748C825.459636 853.276448 830.647557 848.634624 835.630691 843.856276 899.250983 783.034731 975.226718 676.067995 975.226718 511.965869 975.226718 256.529031 767.436838 48.739151 512 48.739151 256.563162 48.739151 48.773282 256.529031 48.773282 511.965869 48.773282 767.402706 256.563162 975.192587 512 975.192587 573.162856 975.192587 636.305313 961.949737 694.532898 936.89754L713.782814 981.677488C649.548163 1009.323645 579.716019 1023.931738 512 1023.931738 229.667889 1023.931738 0.034131 794.229718 0.034131 511.965869 0.034131 229.70202 229.667889 0 512 0 794.332111 0 1023.965869 229.70202 1023.965869 511.965869 1023.965869 653.473235 969.014866 783.853876 869.283914 879.14779ZM632.209586 508.416239C628.659956 483.227518 617.601493 458.857943 598.215052 439.471502 577.668155 418.856343 553.708153 408.275715 529.74815 405.135658L783.614959 254.071595 632.209586 508.416239ZM240.385041 797.301513 391.790414 542.95687C395.340044 568.14559 406.466769 592.515166 425.784948 611.901607 445.239651 631.288047 469.540964 642.34651 494.729685 645.89614L240.385041 797.301513ZM546.472369 491.214186C565.517499 510.259316 565.517499 541.113792 546.472369 560.158923 527.427238 579.204053 496.572762 579.204053 477.527631 560.158923 458.482501 541.113792 458.482501 510.259316 477.527631 491.214186 496.572762 472.169055 527.427238 472.169055 546.472369 491.214186Z" p-id="5486" fill="#5764c6"></path></svg>