<?xml version="1.0" standalone="no"?><!DOCTYPE svg PUBLIC "-//W3C//DTD SVG 1.1//EN" "http://www.w3.org/Graphics/SVG/1.1/DTD/svg11.dtd"><svg t="1500643020977" class="icon" style="" viewBox="0 0 1024 1024" version="1.1" xmlns="http://www.w3.org/2000/svg" p-id="5463" xmlns:xlink="http://www.w3.org/1999/xlink" width="200" height="200"><defs><style type="text/css"></style></defs><path d="M701.882227 733.813597c79.988402-30.011648 121.966315-94.034365 131.980863-178.054182 6.015128-42.009909 10.014548-84.051812-6.015128-124.046013-7.99884-23.996521-23.996521-44.025616-33.979073-66.00643-3.99942-6.015128-6.015128-14.013968-3.99942-19.9971a197.827315 197.827315 0 0 0-6.015128-118.062881c-1.983712-9.982553-7.99884-11.99826-15.99768-11.99826a160.616711 160.616711 0 0 0-89.970954 34.011068c-25.980233 18.013388-50.008749 19.9971-79.988402 11.998261-67.990141-14.013968-133.964575-10.014548-199.971004 6.015127-7.99884 1.983712-18.013388 0-25.980233-3.99942-31.995361-19.9971-62.007009-38.010488-99.985502-46.009328-25.980233-6.015128-29.979653-3.99942-35.994781 23.99652-10.014548 34.011068-11.99826 70.005849-1.983712 104.048913 1.983712 6.015128 1.983712 14.013968-2.015708 15.99768-47.993041 60.023297-53.976173 128.045433-41.977913 200.066991 17.981393 110.032045 79.988402 170.055342 189.956456 190.052442 11.99826 2.015708 23.996521 3.99942 31.995361 3.99942-7.99884 22.012808-15.99768 44.025616-25.980233 64.022717-1.983712 3.99942-6.015128 9.982553-9.982553 11.99826-55.991881 22.012808-106.00063 6.015128-137.963995-46.009329-15.99768-27.995941-37.978493-50.008749-71.989561-56.023876-1.983712 0-3.99942-2.015708-6.015128 0l-23.996521 7.99884c3.99942 6.015128 7.99884 14.013968 13.981973 18.013388 30.011648 19.9971 47.993041 50.008749 62.007009 84.019817 19.9971 42.009909 55.991881 62.039004 99.985502 66.006429 23.996521 2.015708 47.993041 0 71.989561 0 0 30.011648 1.983712 62.039004 0 94.034365 0 19.9971-15.99768 27.995941-35.99478 22.012809-15.99768-3.99942-29.979653-11.99826-43.993621-18.013389-205.954137-94.034365-327.952447-316.114163-299.956507-544.177094S204.00242 45.561394 423.938529 7.550905c287.958246-50.008749 559.886816 154.057662 595.881597 450.142729 30.011648 244.092607-107.984342 478.170665-333.935579 560.20677-3.99942 1.983712-7.99884 3.99942-11.998261 3.999421-19.9971 6.015128-33.979073-3.99942-33.979073-27.995941v-128.045433c0-38.010488-3.99942-76.020977-31.99536-106.032626 33.979073-9.982553 63.990721-15.99768 93.970374-26.012228z" fill="#5764c6" p-id="5464"></path></svg>