<?xml version="1.0" standalone="no"?><!DOCTYPE svg PUBLIC "-//W3C//DTD SVG 1.1//EN" "http://www.w3.org/Graphics/SVG/1.1/DTD/svg11.dtd"><svg t="1500705078468" class="icon" style="" viewBox="0 0 1024 1024" version="1.1" xmlns="http://www.w3.org/2000/svg" p-id="2836" xmlns:xlink="http://www.w3.org/1999/xlink" width="200" height="200"><defs><style type="text/css"></style></defs><path d="M512 64c-247.808 0-448 200.192-448 448s200.192 448 448 448 448-200.192 448-448-200.192-448-448-448z m0 844.8c-218.112 0-396.8-178.688-396.8-396.8S293.888 115.2 512 115.2s396.8 178.688 396.8 396.8-178.688 396.8-396.8 396.8z" p-id="2837" fill="#5764c6"></path><path d="M662.528 294.4L443.392 361.472c-12.8 4.608-22.528 15.872-22.528 30.208v211.456c-15.872-6.656-36.864-9.728-59.392-3.072-43.008 9.728-72.192 45.056-64 78.336s49.664 51.2 92.672 41.472c38.4-9.728 65.536-38.4 65.536-67.072V436.224l193.536-60.928v178.176c-15.872-6.656-36.864-9.728-59.392-3.072-43.008 9.728-72.192 44.544-64 78.336 8.192 33.792 49.664 51.2 92.672 41.472 38.4-9.728 65.536-36.864 65.536-65.536V313.856c2.56-13.312-10.24-22.528-21.504-19.456z" p-id="2838" fill="#5764c6"></path></svg>