<?xml version="1.0" standalone="no"?><!DOCTYPE svg PUBLIC "-//W3C//DTD SVG 1.1//EN" "http://www.w3.org/Graphics/SVG/1.1/DTD/svg11.dtd"><svg t="1500705978854" class="icon" style="" viewBox="0 0 1024 1024" version="1.1" xmlns="http://www.w3.org/2000/svg" p-id="7585" xmlns:xlink="http://www.w3.org/1999/xlink" width="200" height="200"><defs><style type="text/css"></style></defs><path d="M1002.051291 609.834423C1003.297646 340.26496 785.605486 119.954286 516.036023 118.707931 246.468023 117.461577 26.748343 335.750583 25.503451 605.322971l-0.519314 112.174812 0.01024-1.825646c-0.443246 95.68256 77.070629 168.708389 172.750263 169.151634l17.533806 0.080458 1.569645-339.668115-17.535268-0.080457c-52.308846-0.242834-106.371657 22.724023-138.384823 59.282286 1.813943-245.561051 209.160777-451.423086 454.910537-450.287909 245.72928 1.135177 456.933669 221.668206 456.480183 467.249737-31.67232-36.871314-91.204754-73.097509-143.5136-73.33888l-17.535269-0.08192-1.568182 339.67104 17.535268 0.080458c95.68256 0.443246 173.86496-71.887726 174.306743-167.568823l-0.008777 1.847588 0.516388-112.174811z m-820.389302-33.297554l-1.29024 279.497874c-68.768914-11.30496-124.048823-70.007954-123.724069-140.296777 0.323291-70.239086 56.14592-128.531017 125.014309-139.201097z m662.914194 284.0576l1.278537-276.825235c68.110629 11.196709 125.758903 69.318949 125.437074 138.955337-0.323291 69.592503-58.508434 127.325623-126.715611 137.869898z" fill="#5764c6" p-id="7586"></path><path d="M359.030491 671.901989c-9.887451-0.043886-17.931703 7.924297-17.975588 17.80736l-0.332069 71.561508c-0.045349 9.893303 7.922834 17.936091 17.810286 17.98144 9.878674 0.045349 17.93024-7.922834 17.975589-17.816137l0.330605-71.561509c0.046811-9.884526-7.930149-17.928777-17.808823-17.972662zM416.971337 609.54624c-9.8816-0.045349-17.928777 7.92576-17.974126 17.811749l-0.964022 208.7424c-0.045349 9.877211 7.927223 17.928777 17.810285 17.974125 9.8816 0.045349 17.928777-7.933074 17.972663-17.810285l0.964023-208.740938c0.045349-9.885989-7.92576-17.931703-17.808823-17.977051zM474.335817 672.437394c-9.8816-0.045349-17.927314 7.922834-17.972663 17.805897l-0.53248 115.303863c-0.045349 9.89184 7.92576 17.93024 17.80736 17.975589 9.885989 0.045349 17.93024-7.919909 17.977052-17.808823l0.531017-115.305326c0.045349-9.884526-7.924297-17.925851-17.810286-17.9712zM649.112137 709.02784c-9.884526-0.043886-17.93024 7.927223-17.975588 17.804434l-0.457875 99.42016c-0.045349 9.874286 7.924297 17.931703 17.810286 17.977052s16.679497-7.937463 16.726309-17.811749l0.457874-99.42016c0.046811-9.874286-6.67648-17.922926-16.561006-17.969737zM592.043154 583.51616c-9.883063-0.045349-17.925851 7.924297-17.972663 17.80736l-1.253668 271.371703c-0.043886 9.878674 7.924297 17.93024 17.80736 17.974126 9.885989 0.045349 17.931703-7.931611 17.977051-17.808823l1.252206-271.373166c0.049737-9.8816-7.934537-17.925851-17.810286-17.9712zM534.150583 635.431497c-9.8816-0.043886-17.931703 7.933074-17.977052 17.814674l-0.797257 172.473783c-0.045349 9.872823 7.930149 17.928777 17.813212 17.974126 9.880137 0.046811 17.927314-7.934537 17.9712-17.808823l0.797257-172.475246c0.045349-9.8816-7.927223-17.931703-17.80736-17.978514z" fill="#5764c6" p-id="7587"></path></svg>