<?xml version="1.0" standalone="no"?><!DOCTYPE svg PUBLIC "-//W3C//DTD SVG 1.1//EN" "http://www.w3.org/Graphics/SVG/1.1/DTD/svg11.dtd"><svg t="1500705089568" class="icon" style="" viewBox="0 0 1025 1024" version="1.1" xmlns="http://www.w3.org/2000/svg" p-id="2989" xmlns:xlink="http://www.w3.org/1999/xlink" width="200.1953125" height="200"><defs><style type="text/css"></style></defs><path d="M52.576 695.68c-29.088 0-52.576-23.36-52.576-52.416l0-262.592c0-28.992 23.488-52.512 52.576-52.512 28.928 0 52.448 23.488 52.448 52.512l0 262.592C104.992 672.224 81.504 695.68 52.576 695.68L52.576 695.68zM52.576 695.68" fill="#5764c6" p-id="2990"></path><path d="M205.632 827.136c-28.896 0-52.416-23.488-52.416-52.64L153.216 249.408c0-29.024 23.52-52.544 52.416-52.544 29.056 0 52.576 23.488 52.576 52.544l0 525.088C258.176 803.616 234.656 827.136 205.632 827.136L205.632 827.136zM205.632 827.136" fill="#5764c6" p-id="2991"></path><path d="M358.816 761.344c-29.056 0-52.512-23.488-52.512-52.48L306.304 315.072c0-29.024 23.456-52.576 52.512-52.576 29.12 0 52.576 23.52 52.576 52.576l0 393.824C411.392 737.856 387.904 761.344 358.816 761.344L358.816 761.344zM358.816 761.344" fill="#5764c6" p-id="2992"></path><path d="M511.968 892.704c-29.056 0-52.544-23.52-52.544-52.544L459.424 183.808c0-29.024 23.488-52.608 52.544-52.608 28.928 0 52.448 23.552 52.448 52.608l0 656.384C564.416 869.184 540.928 892.704 511.968 892.704L511.968 892.704zM511.968 892.704" fill="#5764c6" p-id="2993"></path><path d="M665.184 1024c-29.056 0-52.512-23.456-52.512-52.672L612.672 52.576C612.704 23.488 636.128 0 665.184 0c28.896 0 52.48 23.488 52.48 52.576l0 918.784C717.664 1000.544 694.112 1024 665.184 1024L665.184 1024zM665.184 1024" fill="#5764c6" p-id="2994"></path><path d="M818.272 827.136c-28.928 0-52.448-23.488-52.448-52.64L765.824 249.408c0-29.024 23.488-52.544 52.448-52.544 28.992 0 52.544 23.488 52.544 52.544l0 525.088C870.784 803.616 847.264 827.136 818.272 827.136L818.272 827.136zM818.272 827.136" fill="#5764c6" p-id="2995"></path><path d="M971.456 630.112c-29.056 0-52.576-23.616-52.576-52.544l0-131.264c0-29.024 23.488-52.544 52.576-52.544 29.024 0 52.544 23.52 52.544 52.544l0 131.264C1023.968 606.496 1000.48 630.112 971.456 630.112L971.456 630.112zM971.456 630.112" fill="#5764c6" p-id="2996"></path></svg>