<?xml version="1.0" standalone="no"?><!DOCTYPE svg PUBLIC "-//W3C//DTD SVG 1.1//EN" "http://www.w3.org/Graphics/SVG/1.1/DTD/svg11.dtd"><svg t="1501221609451" class="icon" style="" viewBox="0 0 1024 1024" version="1.1" xmlns="http://www.w3.org/2000/svg" p-id="8585" xmlns:xlink="http://www.w3.org/1999/xlink" width="200" height="200"><defs><style type="text/css"></style></defs><path d="M630.794082 493.464855c-0.039909-0.040932-0.075725-0.083911-0.115634-0.12382-1.425466-1.438769-2.971681-2.673899-4.604878-3.719718L375.572306 285.640576c-4.939499-6.65763-12.839423-11.002588-21.725814-11.050684-0.63752-0.00307-1.2689 0.022513-1.89721 0.061398-6.396687 0.252757-12.720719 2.838651-17.600867 7.768941-0.423649 0.428765-0.823761 0.871857-1.212618 1.322112-3.828188 4.323469-6.231935 9.892301-6.461155 16.086373-0.037862 0.727571-0.042979 1.457188-0.022513 2.185782l0.224104 422.024779c0.079818 14.866592 12.622482 26.983561 27.487028 27.062356 9.146311 0.049119 17.201777-4.472871 22.031782-11.422144L625.3153 536.00574c2.13257-1.183965 4.139274-2.682086 5.946432-4.50664 10.285251-10.403954 10.285251-27.260877 0-37.653575L630.794082 493.464855zM381.115556 666.544819l-0.164752-308.513516 189.069123 153.947208L381.115556 666.544819zM510.69682 4.27435c-281.464463 0-509.653559 228.175793-509.653559 509.651512 0 281.46344 228.189096 509.652536 509.653559 509.652536 281.476743 0 509.650489-228.189096 509.650489-509.652536C1020.347309 232.450143 792.174586 4.27435 510.69682 4.27435zM510.417457 967.863469c-251.322979 0-455.050963-203.741287-455.050963-455.064266 0-251.308653 203.727984-455.050963 455.050963-455.050963 251.324002 0 455.051987 203.742311 455.051987 455.050963C965.46842 764.122181 761.741459 967.863469 510.417457 967.863469zM666.431743 301.770951c-14.863523-0.078795-27.273157 11.493775-27.193339 26.358321l0.226151 368.728946c0.077771 14.864546 12.621459 26.983561 27.484981 27.061332 14.865569 0.079818 26.863834-11.904121 26.784016-26.782993l-0.226151-368.304274C693.427584 313.968761 681.309592 301.850769 666.431743 301.770951z" p-id="8586" fill="#5764c6"></path></svg>