<?xml version="1.0" standalone="no"?><!DOCTYPE svg PUBLIC "-//W3C//DTD SVG 1.1//EN" "http://www.w3.org/Graphics/SVG/1.1/DTD/svg11.dtd"><svg t="1501220415412" class="icon" style="" viewBox="0 0 1024 1024" version="1.1" xmlns="http://www.w3.org/2000/svg" p-id="2928" xmlns:xlink="http://www.w3.org/1999/xlink" width="200" height="200"><defs><style type="text/css"></style></defs><path d="M513.408 13.312c-275.584 0-498.944 223.36-498.944 498.944 0 77.312 17.536 150.272 48.96 215.616v0.32c0.128 0.192 0.256 0.448 0.32 0.768 0.192-0.128 0.192-0.128 0.256-0.128 3.392 4.864 13.248 3.968 22.336-0.64 9.408-4.864 13.76-13.696 11.008-19.456-28.16-59.648-43.968-126.144-43.968-196.48 0-254.08 205.952-460.032 460.032-460.032 254.08 0 460.032 206.016 460.032 460.032S767.488 972.352 513.408 972.352c-81.152 0-157.248-21.12-223.424-57.984-0.128-0.128-0.192-0.32-0.384-0.32-5.184-4.032-14.592-0.32-21.12 8.192-6.4 8.256-6.144 19.328-1.344 23.552 0 0.128-0.128 0.128-0.128 0.32 72.704 41.344 156.8 65.152 246.464 65.152 275.52 0 498.88-223.36 498.88-498.944-0.064-275.584-223.424-499.008-498.944-499.008z" p-id="2929" fill="#5764c6"></path><path d="M130.048 833.472a0.414 0.414 0 1 0 52.992 0 0.414 0.414 0 1 0-52.992 0zM591.104 713.344V306.816c0-12.032-9.6-21.632-21.568-21.632s-21.568 9.6-21.568 21.632v406.528c0 11.904 9.6 21.568 21.568 21.568s21.568-9.728 21.568-21.568zM465.152 713.344V306.816c0-12.032-9.664-21.632-21.568-21.632s-21.568 9.6-21.568 21.632v406.528c0 11.904 9.664 21.568 21.568 21.568s21.568-9.728 21.568-21.568z" p-id="2930" fill="#5764c6"></path></svg>