<?xml version="1.0" standalone="no"?><!DOCTYPE svg PUBLIC "-//W3C//DTD SVG 1.1//EN" "http://www.w3.org/Graphics/SVG/1.1/DTD/svg11.dtd"><svg t="1501220643110" class="icon" style="" viewBox="0 0 1024 1024" version="1.1" xmlns="http://www.w3.org/2000/svg" p-id="5853" xmlns:xlink="http://www.w3.org/1999/xlink" width="200" height="200"><defs><style type="text/css"></style></defs><path d="M513.856 13.312c-276.736 0-500.992 224.256-500.992 500.992 0 77.568 17.6 151.04 49.152 216.704v0.128h0.064c0.064 0.32 0.192 0.576 0.32 0.704h0.128c3.456 4.864 13.248 4.032 22.464-0.704 9.472-4.736 13.824-13.632 11.072-19.52-28.288-59.968-44.16-126.72-44.16-197.312 0-255.104 206.784-461.952 461.952-461.952 255.04 0 461.888 206.784 461.888 461.952 0 255.232-206.784 462.08-461.888 462.08-81.408 0-157.888-21.184-224.32-58.176a2.784 2.784 0 0 0-0.384-0.448c-5.184-3.968-14.656-0.32-21.248 8.256-6.336 8.32-6.08 19.456-1.344 23.744-0.064 0-0.064 0.192-0.192 0.192 73.024 41.536 157.376 65.472 247.488 65.472 276.608 0 500.992-224.384 500.992-501.12 0-276.672-224.32-500.992-500.992-500.992z" fill="#5764c6" p-id="5854"></path><path d="M128.96 836.928a0.414 0.414 0 1 0 52.992 0 0.414 0.414 0 1 0-52.992 0zM372.992 725.248c0 8 6.848 14.4 15.232 14.4 3.264 0 6.336-1.024 8.832-2.688l358.592-206.976c6.272-2.112 10.944-8.192 10.944-15.488 0-7.36-4.736-13.504-11.264-15.488L398.4 292.8c-2.752-2.24-6.272-3.648-10.176-3.648-8.384 0-15.232 6.464-15.232 14.4 0 1.152 0.192 2.24 0.384 3.264V721.92c-0.192 1.088-0.384 2.112-0.384 3.328zM412.16 372.16c0-5.376 4.544-9.728 10.304-9.728 2.624 0 5.056 0.96 6.784 2.496L670.08 504c4.288 1.344 7.552 5.44 7.552 10.432s-3.2 9.024-7.488 10.432l-241.792 139.84c-1.664 1.088-3.712 1.6-5.888 1.6-5.696 0-10.304-4.288-10.304-9.728 0-0.704 0.064-1.344 0.256-2.176V374.336c-0.192-0.704-0.256-1.408-0.256-2.176z" fill="#5764c6" p-id="5855"></path></svg>