<?xml version="1.0" standalone="no"?><!DOCTYPE svg PUBLIC "-//W3C//DTD SVG 1.1//EN" "http://www.w3.org/Graphics/SVG/1.1/DTD/svg11.dtd"><svg t="1509451691102" class="icon" style="" viewBox="0 0 1024 1024" version="1.1" xmlns="http://www.w3.org/2000/svg" p-id="2768" xmlns:xlink="http://www.w3.org/1999/xlink" width="200" height="200"><defs><style type="text/css"></style></defs><path d="M92.571349 636.126019l78.421071 0c16.135492 0 29.209252-13.046131 29.209252-29.124318 0-16.078187-13.072737-29.124318-29.209252-29.124318l-78.421071 0c-16.135492 0-29.209252 13.046131-29.209252 29.124318C63.361073 623.079888 76.435856 636.126019 92.571349 636.126019z" p-id="2769" fill="#5764c6"></path><path d="M92.571349 344.663854l386.112871-0.001023c16.135492 0 29.209252-13.046131 29.209252-29.124318 0-16.080234-13.07376-29.124318-29.209252-29.124318L92.571349 286.414195c-16.135492 0-29.209252 13.044084-29.209252 29.125341C63.36005 331.617723 76.434833 344.663854 92.571349 344.663854z" p-id="2770" fill="#5764c6"></path><path d="M902.156978 182.175109l-0.002047-0.001023c-69.487607-76.68452-158.979828-86.086657-162.753781-86.447884-15.117302-1.461281-28.970822 9.025561-31.576159 24.045649l-17.543561 101.483322c-2.747577 15.854083 7.921413 30.92636 23.819498 33.655518 15.848966 2.731204 31.007201-7.886621 33.745569-23.7581l12.361539-71.466682c25.624611 7.716752 65.328891 24.822338 98.609879 61.549821 30.093389 33.20117 44.470841 99.627045 41.657772 150.423965-82.486666-72.39482-194.758706-84.454484-200.293769-85.005023-15.268752-1.725294-28.961612 8.857738-31.651884 23.816428l-40.571021 224.888933c-1.038656-1.572822-2.243087-3.053546-3.622504-4.455475-35.800367-36.237319-86.878696-57.910944-143.659911-61.019749-110.38404-7.015787-207.15913 59.216683-215.516472 146.821927-3.508917 36.444027 8.728802 73.003687 34.468023 102.964046 34.884508 40.615023 90.480734 65.9879 152.551418 69.611427 3.346211 0.207731 6.701632 0.301875 10.06831 0.301875 68.192102 0 141.130298-39.518039 180.306552-98.621135 9.898441-14.921851 22.724561-37.506219 27.734668-61.285808l50.613748-280.518928c42.25436 9.063423 124.797307 34.472116 171.671894 99.909477 5.979178 8.324596 15.802918 12.837376 26.203802 12.097526 10.260691-0.852414 19.309788-7.03523 23.819498-16.270569C973.782272 381.121184 961.251887 247.366877 902.156978 182.175109zM612.958366 618.504686l0.001023-0.002047c-2.26253 10.715039-9.241478 25.41074-19.140942 40.316218-29.730115 44.845371-88.112804 75.123978-138.220015 72.321142-45.63127-2.674922-87.355557-21.125133-111.600751-49.359174-10.838859-12.610202-23.229051-33.184797-20.691251-59.520605 5.059226-52.999075 68.86953-94.582145 142.301983-94.582145 3.880377 0 7.779174 0.11461 11.704576 0.360204 41.780569 2.27481 80.19446 18.22099 105.408725 43.744293 10.326183 10.447956 26.615171 11.510148 38.119179 3.01773L612.958366 618.504686z" p-id="2771" fill="#5764c6"></path><path d="M772.425288 869.010043l-679.853939 0c-16.135492 0-29.209252 13.046131-29.209252 29.124318 0 16.080234 13.07376 29.124318 29.209252 29.124318l679.853939 0c16.135492 0 29.209252-13.044084 29.209252-29.124318C801.63454 882.057197 788.56078 869.010043 772.425288 869.010043z" p-id="2772" fill="#5764c6"></path></svg>