<?xml version="1.0" standalone="no"?><!DOCTYPE svg PUBLIC "-//W3C//DTD SVG 1.1//EN" "http://www.w3.org/Graphics/SVG/1.1/DTD/svg11.dtd"><svg class="icon" width="200px" height="200.00px" viewBox="0 0 1024 1024" version="1.1" xmlns="http://www.w3.org/2000/svg"><path fill="#5764c6" d="M134.4 102.401v825.599c0 17.673 14.327 32 32 32s32-14.327 32-32v-825.599c0-17.673-14.327-32-32-32s-32 14.327-32 32zM780.428 143.795l-404.352 331.090c-27.383 22.42-27.435 58.886 0 81.35l404.352 331.090c27.382 22.42 49.676 12.003 49.676-23.366v-696.799c0-35.647-22.24-45.83-49.676-23.365zM739.882 94.277c69.12-56.597 154.221-16.897 154.221 72.883v696.8c0 89.482-85.14 129.447-154.221 72.883l-404.352-331.090c-58.7-48.064-58.662-132.353 0-180.386l404.352-331.090z"  /></svg>