<?xml version="1.0" encoding="UTF-8" standalone="no"?>
<svg
   xmlns:dc="http://purl.org/dc/elements/1.1/"
   xmlns:cc="http://creativecommons.org/ns#"
   xmlns:rdf="http://www.w3.org/1999/02/22-rdf-syntax-ns#"
   xmlns:svg="http://www.w3.org/2000/svg"
   xmlns="http://www.w3.org/2000/svg"
   xmlns:sodipodi="http://sodipodi.sourceforge.net/DTD/sodipodi-0.dtd"
   xmlns:inkscape="http://www.inkscape.org/namespaces/inkscape"
   preserveAspectRatio="xMidYMid"
   width="30"
   height="30"
   viewBox="0 0 30 30"
   version="1.1"
   id="svg8"
   sodipodi:docname="qq_login.svg"
   inkscape:version="0.92.4 5da689c313, 2019-01-14">
  <metadata
     id="metadata12">
    <rdf:RDF>
      <cc:Work
         rdf:about="">
        <dc:format>image/svg+xml</dc:format>
        <dc:type
           rdf:resource="http://purl.org/dc/dcmitype/StillImage" />
        <dc:title />
      </cc:Work>
    </rdf:RDF>
  </metadata>
  <sodipodi:namedview
     pagecolor="#ffffff"
     bordercolor="#666666"
     borderopacity="1"
     objecttolerance="10"
     gridtolerance="10"
     guidetolerance="10"
     inkscape:pageopacity="0"
     inkscape:pageshadow="2"
     inkscape:window-width="1920"
     inkscape:window-height="1079"
     id="namedview10"
     showgrid="false"
     inkscape:zoom="22.250293"
     inkscape:cx="8.8888467"
     inkscape:cy="17.02896"
     inkscape:window-x="0"
     inkscape:window-y="0"
     inkscape:window-maximized="1"
     inkscape:current-layer="svg8" />
  <defs
     id="defs4">
    <style
       id="style2">
      .cls-1 {
        fill: #000;
        fill-rule: evenodd;
      }
    </style>
  </defs>
  <path
     style="fill:#5764c6;fill-opacity:1;stroke-width:0.04651073"
     d="m 9.4986443,25.724037 c -1.165881,-0.237975 -1.743415,-0.551287 -1.995449,-1.082528 -0.113962,-0.240212 -0.12202,-0.294568 -0.100735,-0.679557 0.03598,-0.650921 0.219889,-0.928502 1.031324,-1.556705 0.20782,-0.16089 0.380296,-0.318141 0.383279,-0.349445 0.01252,-0.131316 -0.02931,-0.225765 -0.338979,-0.765399 -0.178888,-0.311732 -0.508742,-0.906856 -0.73301,-1.322498 -0.224267,-0.415643 -0.415606,-0.764056 -0.425198,-0.774253 -0.03375,-0.03588 -0.171875,0.115047 -0.4484,0.489973 -0.459043,0.622395 -0.8869797,1.016377 -1.1039728,1.016377 -0.1448722,0 -0.27999,-0.174893 -0.3644701,-0.47176 -0.059371,-0.208619 -0.070703,-0.434496 -0.058056,-1.157186 0.015163,-0.867266 0.020871,-0.914122 0.1666428,-1.370291 0.2628797,-0.822623 0.6358785,-1.511043 1.4141581,-2.61002 0.200592,-0.283248 0.409462,-0.605453 0.464155,-0.716012 0.111981,-0.226364 0.206275,-0.694737 0.252754,-1.255482 0.03794,-0.457682 0.246436,-1.130767 0.432187,-1.395205 0.186778,-0.265899 0.262218,-0.528518 0.366255,-1.275 0.15088,-1.0825741 0.364305,-1.8319231 0.742956,-2.6085661 0.486716,-0.998289 1.1776087,-1.8140709 2.0608227,-2.433348 0.319226,-0.2238298 1.069966,-0.5959675 1.482666,-0.7349496 0.732301,-0.2466118 0.88449,-0.2649778 2.224142,-0.2683985 1.370201,-0.00347 1.580528,0.022038 2.338403,0.2838839 0.870061,0.3006095 1.578499,0.7453874 2.251521,1.4135692 1.172009,1.163583 1.729819,2.378525 2.003733,4.3642461 0.105267,0.763126 0.173263,1.012338 0.33657,1.233561 0.285967,0.387387 0.39012,0.783459 0.485245,1.845295 0.0626,0.698753 0.106256,0.854299 0.316459,1.127513 0.0912,0.118536 0.302286,0.391561 0.469086,0.606725 0.899492,1.160304 1.552381,2.812756 1.551323,3.926372 -5.51e-4,0.578816 -0.28859,1.542285 -0.461085,1.542285 -0.228969,0 -0.699543,-0.432641 -1.242167,-1.142037 -0.175274,-0.229143 -0.334019,-0.416623 -0.352767,-0.416623 -0.0352,0 -0.359257,0.582185 -0.578387,1.039107 -0.06852,0.142878 -0.29036,0.564934 -0.492976,0.937905 -0.449084,0.82666 -0.457135,0.891758 -0.143208,1.157823 0.40762,0.345472 0.918405,0.900239 1.001686,1.087935 0.102881,0.231879 0.145364,0.880294 0.07513,1.146865 -0.122697,0.465747 -0.8694,0.93747 -1.742352,1.100714 -0.363856,0.06803 -2.402219,0.0688 -2.82177,0.0011 -0.888834,-0.143534 -1.619155,-0.432568 -2.201851,-0.871406 -0.589267,-0.443789 -0.880393,-0.461728 -1.419589,-0.08748 -0.578113,0.401265 -1.366651,0.732816 -2.17626,0.91504 -0.311958,0.07021 -0.645358,0.09541 -1.469416,0.111051 -0.586248,0.01113 -1.1174297,0.0097 -1.1804057,-0.0032 z"
     id="path3783"
     inkscape:connector-curvature="0" />
</svg>
