<?xml version="1.0" encoding="UTF-8" standalone="no"?>
<svg
   xmlns:dc="http://purl.org/dc/elements/1.1/"
   xmlns:cc="http://creativecommons.org/ns#"
   xmlns:rdf="http://www.w3.org/1999/02/22-rdf-syntax-ns#"
   xmlns:svg="http://www.w3.org/2000/svg"
   xmlns="http://www.w3.org/2000/svg"
   xmlns:sodipodi="http://sodipodi.sourceforge.net/DTD/sodipodi-0.dtd"
   xmlns:inkscape="http://www.inkscape.org/namespaces/inkscape"
   preserveAspectRatio="xMidYMid"
   width="30"
   height="30"
   viewBox="0 0 30 30"
   version="1.1"
   id="svg8"
   sodipodi:docname="tencent_QQ_1188698_easyicon.net.svg"
   inkscape:version="0.92.4 5da689c313, 2019-01-14">
  <metadata
     id="metadata12">
    <rdf:RDF>
      <cc:Work
         rdf:about="">
        <dc:format>image/svg+xml</dc:format>
        <dc:type
           rdf:resource="http://purl.org/dc/dcmitype/StillImage" />
        <dc:title></dc:title>
      </cc:Work>
    </rdf:RDF>
  </metadata>
  <sodipodi:namedview
     pagecolor="#ffffff"
     bordercolor="#666666"
     borderopacity="1"
     objecttolerance="10"
     gridtolerance="10"
     guidetolerance="10"
     inkscape:pageopacity="0"
     inkscape:pageshadow="2"
     inkscape:window-width="933"
     inkscape:window-height="1080"
     id="namedview10"
     showgrid="false"
     inkscape:zoom="15.733333"
     inkscape:cx="7.6708015"
     inkscape:cy="11.894971"
     inkscape:window-x="54"
     inkscape:window-y="-30"
     inkscape:window-maximized="0"
     inkscape:current-layer="svg8" />
  <defs
     id="defs4">
    <style
       id="style2">
      .cls-1 {
        fill: #000;
        fill-rule: evenodd;
      }
    </style>
  </defs>
  <path
     style="fill:#5764c6;fill-opacity:1;stroke:#5764c6;stroke-width:0.2580846;stroke-miterlimit:4;stroke-dasharray:none;stroke-opacity:1"
     d="M 12.741686,29.272148 C 6.529027,28.171941 1.8333698,23.32526 0.8849784,17.034103 -0.31294874,9.087648 5.2244159,1.8231742 13.353006,0.67728661 c 1.568235,-0.22107448 3.978682,-0.0830674 5.481816,0.31385481 3.912691,1.03319738 7.212845,3.68656568 9.078871,7.29953438 1.267503,2.4541192 1.748289,4.6332572 1.641178,7.4385712 -0.08403,2.201061 -0.445476,3.662853 -1.374776,5.560101 -1.995818,4.074635 -5.60398,6.865256 -10.164062,7.861072 -1.219148,0.266232 -4.084883,0.332372 -5.274347,0.121726 z m 0.02686,-4.550339 c 0.984313,-0.208634 1.977484,-0.62059 2.266749,-0.940223 0.296499,-0.327627 0.810965,-0.295782 1.156063,0.07156 0.934042,0.994243 4.3721,1.359297 5.95911,0.63274 0.865643,-0.396305 1.096241,-0.754052 1.017079,-1.577896 -0.0521,-0.542194 -0.131175,-0.700605 -0.540221,-1.082157 -0.263554,-0.245841 -0.579834,-0.503308 -0.702846,-0.572147 -0.207629,-0.11619 -0.191046,-0.176138 0.23147,-0.836637 0.250319,-0.39131 0.563349,-0.956128 0.695619,-1.25515 l 0.240495,-0.543676 0.346828,0.478782 c 0.43212,0.596524 0.972217,1.029628 1.225362,0.982614 0.328961,-0.06109 0.622511,-0.834236 0.61991,-1.632703 -0.0043,-1.287407 -0.921822,-3.303347 -1.953593,-4.291847 -0.33087,-0.316995 -0.361841,-0.418309 -0.364284,-1.191714 -0.0027,-0.845995 -0.221802,-1.541992 -0.57875,-1.838232 -0.09516,-0.07897 -0.173992,-0.344216 -0.175166,-0.589414 C 22.21111,10.29051 22.129253,9.7076079 22.030266,9.2403708 21.363777,6.0943153 18.867725,4.1070063 15.578042,4.1032336 12.304783,4.0994785 9.7908943,6.1009896 9.1258191,9.2403708 9.0268302,9.7076079 8.9448879,10.28871 8.9437149,10.53171 c -0.00136,0.280842 -0.090004,0.521339 -0.2433028,0.660073 -0.3297886,0.298454 -0.5132688,0.912442 -0.5245043,1.755172 -0.00846,0.635285 -0.058683,0.766842 -0.4952477,1.297571 -1.2817615,1.558229 -1.8746937,3.045681 -1.7830862,4.473119 0.045017,0.701456 0.1167304,0.973681 0.3064911,1.163441 0.2330734,0.233075 0.2699651,0.236224 0.6237957,0.05326 0.2068393,-0.10696 0.5559019,-0.444885 0.7756952,-0.75094 l 0.3996236,-0.556467 0.4384761,0.831925 c 0.2411618,0.457558 0.5689425,1.014757 0.7284023,1.238218 0.1594598,0.22346 0.2700678,0.419233 0.245795,0.435051 -0.024269,0.01582 -0.27763,0.17831 -0.5630185,0.361093 -1.1939539,0.764692 -1.2596402,2.27314 -0.1251664,2.874384 0.9492261,0.503069 2.639534,0.651237 4.040872,0.354212 z"
     id="path19"
     inkscape:connector-curvature="0" />
</svg>
