<?xml version="1.0" standalone="no"?><!DOCTYPE svg PUBLIC "-//W3C//DTD SVG 1.1//EN" "http://www.w3.org/Graphics/SVG/1.1/DTD/svg11.dtd"><svg t="1508577925504" class="icon" style="" viewBox="0 0 1024 1024" version="1.1" xmlns="http://www.w3.org/2000/svg" p-id="4152" xmlns:xlink="http://www.w3.org/1999/xlink" width="200" height="200"><defs><style type="text/css"></style></defs><path d="M432.3328 787.03616c-47.88224 0-94.34112-9.39008-138.08128-27.88352-42.24512-17.87392-80.18432-43.42272-112.75264-76.01152-32.56832-32.55296-58.13248-70.50752-76.0064-112.72704-18.49856-43.7504-27.88864-90.2144-27.88864-138.10688 0-47.86688 9.38496-94.33088 27.88864-138.08128 17.87392-42.24512 43.43808-80.19968 76.0064-112.75264S252.0064 123.34592 294.25152 105.472c43.73504-18.49856 90.19904-27.86304 138.08128-27.86304s94.34112 9.36448 138.09152 27.86304c42.24512 17.87392 80.16896 43.44832 112.72704 76.0064 32.58368 32.55296 58.15808 70.50752 76.01152 112.75264 18.51904 43.7504 27.90912 90.2144 27.90912 138.08128 0 47.89248-9.39008 94.35648-27.90912 138.10688-17.84832 42.21952-43.42272 80.16896-76.01152 112.72704-32.55296 32.58368-70.48192 58.13248-112.72704 76.01152C526.67392 777.64608 480.21504 787.03616 432.3328 787.03616zM432.3328 129.29024c-167.08096 0-303.01696 135.94624-303.01696 303.01696 0 167.09632 135.936 303.01696 303.01696 303.01696s303.0272-135.92064 303.0272-303.01696C735.36 265.2416 599.41376 129.29024 432.3328 129.29024zM870.85568 951.49568c-21.48352 0-41.66656-8.33536-56.87296-23.44448L660.992 779.75552l35.9936-37.12512 153.39008 148.72576c5.46816 5.44256 12.7232 8.43264 20.48 8.43264s15.01184-3.01568 20.48512-8.43264c5.44256-5.47328 8.45824-12.77952 8.45824-20.53632s-2.99008-15.03744-8.45824-20.48l-0.30208-0.30208-148.39808-153.06752 37.12512-35.9936 148.27008 152.96512c15.13472 15.18592 23.47008 35.38944 23.47008 56.87296 0 21.56544-8.38656 41.82016-23.59296 57.07776C912.67584 943.10912 892.44672 951.49568 870.85568 951.49568zM278.528 586.17856c-41.1392-41.1136-63.7952-95.78496-63.78496-153.92256 0.01536-58.112 22.656-112.77824 63.78496-153.91744l36.56192 36.57216c-64.71168 64.73728-64.71168 170.0352-0.01024 234.71616L278.528 586.17856z" p-id="4153" fill="#5764c6"></path></svg>