<?xml version="1.0" standalone="no"?><!DOCTYPE svg PUBLIC "-//W3C//DTD SVG 1.1//EN" "http://www.w3.org/Graphics/SVG/1.1/DTD/svg11.dtd"><svg t="1500705181877" class="icon" style="" viewBox="0 0 1024 1024" version="1.1" xmlns="http://www.w3.org/2000/svg" p-id="5527" xmlns:xlink="http://www.w3.org/1999/xlink" width="200" height="200"><defs><style type="text/css"></style></defs><path d="M509.888919 335.136873c-98.655927 0-178.929182 80.273255-178.929182 178.929182 0 98.6723 80.275301 178.950671 178.929182 178.950671 28.112268 0 54.640458-6.707772 78.336136-18.308995l-0.030699-0.060375c6.427386-3.260254 10.825556-9.906627 10.825556-17.594727 0-10.902304-8.833179-19.787672-19.760043-19.787672-2.561335 0-5.001921 0.500397-7.250124 1.391696l-0.104377-0.231267c-18.711154 9.353019-39.709397 14.767332-62.018495 14.767332-76.710103 0-139.091872-62.407352-139.091872-139.127687 0-76.707033 62.381769-139.085732 139.091872-139.085732s139.139967 62.378699 139.139967 139.085732c0 13.69286-2.085498 26.913976-5.776563 39.421848l0.356111 0.137123c-0.375553 1.521656-0.598634 3.107781-0.598634 4.746094 0 10.901281 8.834202 19.741623 19.762089 19.741623 7.528464 0 14.06125-4.199649 17.393135-10.383488l0.346901 0.135076c0.343831-1.080611 0.673335-2.165316 0.988514-3.254114 0.161682-0.468674 0.292666-0.948605 0.412392-1.432629 4.466732-15.617699 6.89913-32.077579 6.89913-49.112558C688.814008 415.410128 608.563266 335.136873 509.888919 335.136873L509.888919 335.136873M933.282882 415.275052l-68.113307 0c-3.520173-12.893658-7.869225-25.857924-13.255908-39.412638l-3.981684-9.562796c-5.243421-12.167111-11.262508-24.137747-17.816784-35.668361l48.136324-48.151673c4.951779-4.956895 7.693216-11.538801 7.693216-18.531052 0-6.991228-2.740414-13.571087-7.693216-18.524912l-99.744725-99.752912c-9.92607-9.931187-27.187199-9.931187-37.07029 0l-48.136324 48.151673c-11.695367-6.650467-24.02723-12.793374-37.817304-18.766412l-8.93244-3.64604c-12.332886-4.856611-25.001417-9.101285-37.869492-12.649088L608.680946 90.675162c0-14.446014-11.744485-26.199709-26.218128-26.199709L441.435874 64.475454c-14.467503 0-26.218128 11.772115-26.218128 26.199709l0 68.089771c-12.863982 3.541663-25.561166 7.765871-37.817304 12.649088l-11.072173 4.593622c-12.137435 5.243421-24.130583 11.241019-35.68371 17.820877l-48.157813-48.151673c-9.907651-9.906627-27.142174-9.906627-37.07029 0l-99.719142 99.748818c-4.950755 4.932336-7.698333 11.538801-7.698333 18.530029 0 6.992251 2.720971 13.546527 7.698333 18.524912l48.137347 48.152696c-6.655584 11.703553-12.821003 24.134677-18.937305 38.269605l-3.520173 8.520047c-4.875031 12.291954-9.078773 24.963555-12.597923 37.860283l-68.113307 0c-14.440897 0-26.192545 11.774161-26.192545 26.201755l0 141.075039c0 14.425547 11.750625 26.174126 26.192545 26.174126l68.113307 0c3.544733 12.945847 7.913227 25.934672 13.32754 39.633672l3.906983 9.367345c5.29254 12.189623 11.267625 24.136723 17.820877 35.622312l-48.110741 48.161906c-10.217712 10.197246-10.217712 26.858718 0 37.054941l99.718119 99.749842c9.903557 9.859555 27.13808 9.906627 37.045731 0l48.157813-48.177256c11.555174 6.606465 23.475667 12.576433 35.537378 17.825994l8.15575 3.397377 3.107781 1.26583c12.282744 4.852518 24.957415 9.077749 37.823444 12.573363l0 68.088748c0 14.471596 11.744485 26.226315 26.214035 26.226315l141.03206 0c14.467503 0 26.218128-11.803837 26.218128-26.226315l0-68.088748c12.916171-3.541663 25.851784-7.867178 39.324634-13.205766l9.610892-3.983731c12.1886-5.294586 24.134677-11.265578 35.68371-17.872043l48.161906 48.177256c9.883091 9.855462 27.136034 9.906627 37.040614 0l99.769284-99.749842c10.19827-10.202363 10.19827-26.857694 0-37.054941l-48.157813-48.161906c6.604418-11.582803 12.719696-23.86964 18.594497-37.467333l1.550309-3.693112 2.285043-5.636371c4.875031-12.357446 9.099239-25.036209 12.619412-37.829584l68.1174 0c14.440897 0 26.192545-11.731182 26.192545-26.175149L959.526593 441.475783C959.475428 427.055352 947.725826 415.275052 933.282882 415.275052L933.282882 415.275052M324.262198 246.465344l17.721617-10.905374c13.104459-8.081049 26.895557-15.22475 42.161239-21.826098l8.694009-3.571339c13.980409-5.558599 28.737508-10.221806 43.836391-13.839193l20.24816-4.761444L456.923614 106.189508l110.107747 0 0 85.37239 20.24202 4.761444c15.150048 3.590781 29.762861 8.227382 45.880957 14.59337l7.958252 3.350304c14.156418 6.116301 27.913746 13.281491 40.881083 21.298072l17.697057 10.899234 60.317761-60.33618 77.874625 77.844949-60.34846 60.34232 10.877745 17.676591c8.104585 13.186324 15.289218 27.050076 21.968337 42.445718l3.472078 8.404414c5.633301 14.299681 10.292414 29.062919 13.833053 43.850717l4.759397 20.246113 85.373413 0 0 110.096491 0 0-85.418438 0-4.759397 20.24816c-3.569292 15.058974-8.275477 29.892821-14.366196 45.26288l-1.455141 3.641947-2.088568 4.927219c-6.116301 14.134929-13.278421 27.877931-21.318538 40.84322l-10.920724 17.701151 60.375066 60.404742-77.848019 77.848019-60.350506-60.366879-17.721617 10.880815c-13.299911 8.205892-26.894534 15.249309-42.768059 22.190395l-7.964392 3.206018c-14.370289 5.680373-29.175483 10.347672-44.00933 13.893428l-20.221554 4.803399 0 85.283362L456.903148 917.803329l0-85.283362-20.218484-4.803399c-15.3455-3.691065-30.149671-8.403391-46.609551-14.910595l-7.333012-3.059686c-13.979386-6.069229-27.67327-13.255908-40.804335-21.318538l-17.697057-10.880815-60.344367 60.366879-77.848019-77.846996 60.34539-60.405765-10.899234-17.700127c-8.134261-13.135158-15.292288-26.974351-21.917172-42.250266l-3.449565-8.525164c-5.655813-14.275121-10.289344-29.03836-13.809517-43.946908l-4.831029-20.203134-85.326341 0-0.001023-110.095467 85.327364 0 4.831029-20.196994c3.615341-15.249309 8.395204-30.27963 14.58723-45.871747l3.324722-7.987928c6.045693-13.986549 13.207813-27.731598 21.290909-40.86778l10.920724-17.700127L186.092325 263.974114l77.848019-77.850066L324.262198 246.465344z" p-id="5528" fill="#5764c6"></path></svg>