<?xml version="1.0" standalone="no"?><!DOCTYPE svg PUBLIC "-//W3C//DTD SVG 1.1//EN" "http://www.w3.org/Graphics/SVG/1.1/DTD/svg11.dtd"><svg t="1528374297672" class="icon" style="" viewBox="0 0 1024 1024" version="1.1" xmlns="http://www.w3.org/2000/svg" p-id="1066" xmlns:xlink="http://www.w3.org/1999/xlink" width="200" height="200"><defs><style type="text/css"></style></defs><path d="M548.628736 733.289965 331.110758 733.289965c-119.296927 0-216.343174-97.052406-216.343174-216.34535L114.767584 505.199107c0-57.421804 22.300825-111.525026 62.798844-152.346757 10.109666-10.188037 10.042125-26.641777-0.155549-36.758182-10.179254-10.090822-26.642895-10.04682-36.763818 0.153496-50.204486 50.619888-77.859473 117.723192-77.859473 188.951443l0 11.745509c0 147.95575 120.360187 268.327258 268.322147 268.327258l217.516955 0c14.356565 0 25.991022-11.633968 25.991022-25.989931C574.619758 744.920864 562.985301 733.289965 548.628736 733.289965z" p-id="1067" fill="#5764c6"></path><path d="M688.511355 236.869802 444.551058 236.869802l0-69.809949c0-28.955472-19.82432-39.672558-44.058251-23.843034l-139.005608 90.852194c-24.222674 15.829524-24.222674 41.759079 0 57.586556l139.005608 90.854241c24.233931 15.827477 44.058251 5.110391 44.058251-23.845081L444.551058 288.851711l243.960297 0c119.29488 0 216.354431 97.052406 216.354431 216.347396l0 11.745509c0 71.698972-35.485655 138.628314-94.912564 179.030489-11.872897 8.071839-14.955224 24.242124-6.878953 36.110429 5.033854 7.393387 13.198134 11.374048 21.511822 11.374048 5.041018 0 10.11683-1.447978 14.598076-4.493338 73.674999-50.098002 117.663662-133.100414 117.663662-222.021629L956.847829 505.199107C956.847829 357.24131 836.473315 236.869802 688.511355 236.869802z" p-id="1068" fill="#5764c6"></path><path d="M705.646313 455.410144l-24.552193 0c-5.19452 0-9.923417 2.959402-12.233116 7.612375-5.834114 11.765975-16.178127 24.370037-30.728105 37.349653-14.894847 13.30912-32.58446 24.840758-52.59196 34.249035-4.797461 2.249227-7.858298 7.054673-7.858298 12.311397l0 36.873816c0 4.427846 2.195084 8.654101 5.853557 11.190877 2.332213 1.612731 5.061485 2.445702 7.814294 2.445702 1.599495 0 3.193873-0.271176 4.727873-0.832971 12.462346-4.620227 26.696109-11.56643 42.29195-20.742417 5.518922-3.241834 10.693999-6.544043 15.51909-9.844206l0 214.577077c0 7.579629 6.108371 13.687744 13.653524 13.687744l38.103382 0c7.549247 0 13.657618-6.108115 13.657618-13.687744L719.303931 469.046722C719.303931 461.518259 713.19556 455.410144 705.646313 455.410144z" p-id="1069" fill="#5764c6"></path></svg>