<?xml version="1.0" standalone="no"?><!DOCTYPE svg PUBLIC "-//W3C//DTD SVG 1.1//EN" "http://www.w3.org/Graphics/SVG/1.1/DTD/svg11.dtd"><svg t="1501221902665" class="icon" style="" viewBox="0 0 1024 1024" version="1.1" xmlns="http://www.w3.org/2000/svg" p-id="9298" xmlns:xlink="http://www.w3.org/1999/xlink" width="200" height="200"><defs><style type="text/css"></style></defs><path d="M499.905261 2.808277h-12.573424l-256.351034 239.34181H74.451259C33.412117 242.150087 0 277.92371 0 321.930691v382.946896c0 44.006981 33.412117 79.780603 74.451259 79.780603l156.401895-0.127649 256.478683 239.469459h12.573424c41.102967 0 74.515084-35.805535 74.515083-79.844428V82.556968C574.420344 38.5819 541.008227 2.808277 499.905261 2.808277zM510.595861 944.155572a20.040888 20.040888 0 0 1-3.223136 11.265021l-250.223884-233.629518H248.59636l-174.113189-0.925455c-5.042134 0-10.626776-6.542009-10.626776-15.956121v-382.946896c0-9.382199 5.616554-15.956121 10.626776-15.956121l169.00723-0.191473c1.818998-0.159561 3.41461-0.478684 4.818749-0.765894h8.839691l250.223884-233.629519c1.914734 2.776365 3.223136 6.637746 3.223136 11.137372v861.598604zM779.041636 75.759661a31.912241 31.912241 0 0 0-26.168038 58.207928C875.161306 188.984293 957.36724 341.939666 957.36724 514.616804c0 169.613563-80.418848 321.771129-200.025929 378.479182a31.880329 31.880329 0 0 0 13.690352 60.760908 31.369733 31.369733 0 0 0 13.658439-3.1274C926.125156 883.681875 1021.191723 708.419845 1021.191723 514.616804c0-197.3453-97.364248-373.724258-242.150087-438.857143z" p-id="9299" fill="#5764c6"></path><path d="M842.993767 510.595861c0-111.246073-56.899526-210.237846-141.658439-246.394415a31.912241 31.912241 0 1 0-25.083022 58.718524c61.590626 26.231862 102.916978 101.672401 102.916978 187.675891 0 86.067315-41.326353 161.507853-102.916978 187.612067a31.944154 31.944154 0 0 0 24.955373 58.782349c84.822737-36.02892 141.786088-135.084518 141.786088-246.394416z" p-id="9300" fill="#5764c6"></path></svg>